<svg width="79" height="42" viewBox="0 0 79 42" fill="none" xmlns="http://www.w3.org/2000/svg">
<g style="mix-blend-mode:multiply" filter="url(#filter0_d_14_12)">
<path d="M14.96 17.84C15.9733 17.84 16.8533 17.7133 17.6 17.46C18.36 17.2067 18.98 16.86 19.46 16.42C19.9533 15.9667 20.32 15.4333 20.56 14.82C20.8 14.2067 20.92 13.5333 20.92 12.8C20.92 11.3333 20.4333 10.2067 19.46 9.42C18.5 8.63333 17.0267 8.24 15.04 8.24H11.6V17.84H14.96ZM28.8 33H23.94C23.02 33 22.3533 32.64 21.94 31.92L15.86 22.66C15.6333 22.3133 15.38 22.0667 15.1 21.92C14.8333 21.7733 14.4333 21.7 13.9 21.7H11.6V33H6.22V4.08H15.04C17 4.08 18.68 4.28666 20.08 4.7C21.4933 5.1 22.6467 5.66666 23.54 6.4C24.4467 7.13333 25.1133 8.01333 25.54 9.04C25.9667 10.0533 26.18 11.1733 26.18 12.4C26.18 13.3733 26.0333 14.2933 25.74 15.16C25.46 16.0267 25.0467 16.8133 24.5 17.52C23.9667 18.2267 23.3 18.8467 22.5 19.38C21.7133 19.9133 20.8133 20.3333 19.8 20.64C20.1467 20.84 20.4667 21.08 20.76 21.36C21.0533 21.6267 21.32 21.9467 21.56 22.32L28.8 33Z" fill="white"/>
<path d="M43.3506 16.48C43.2173 16.6933 43.0773 16.8467 42.9306 16.94C42.784 17.02 42.5973 17.06 42.3706 17.06C42.1306 17.06 41.8706 16.9933 41.5906 16.86C41.324 16.7267 41.0106 16.58 40.6506 16.42C40.2906 16.2467 39.8773 16.0933 39.4106 15.96C38.9573 15.8267 38.4173 15.76 37.7906 15.76C36.8173 15.76 36.0506 15.9667 35.4906 16.38C34.944 16.7933 34.6706 17.3333 34.6706 18C34.6706 18.44 34.8106 18.8133 35.0906 19.12C35.384 19.4133 35.764 19.6733 36.2306 19.9C36.7106 20.1267 37.2506 20.3333 37.8506 20.52C38.4506 20.6933 39.0573 20.8867 39.6706 21.1C40.2973 21.3133 40.9106 21.56 41.5106 21.84C42.1106 22.1067 42.644 22.4533 43.1106 22.88C43.5906 23.2933 43.9706 23.7933 44.2506 24.38C44.544 24.9667 44.6906 25.6733 44.6906 26.5C44.6906 27.4867 44.5106 28.4 44.1506 29.24C43.804 30.0667 43.284 30.7867 42.5906 31.4C41.8973 32 41.0373 32.4733 40.0106 32.82C38.9973 33.1533 37.824 33.32 36.4906 33.32C35.784 33.32 35.0906 33.2533 34.4106 33.12C33.744 33 33.0973 32.8267 32.4706 32.6C31.8573 32.3733 31.284 32.1067 30.7506 31.8C30.2306 31.4933 29.7706 31.16 29.3706 30.8L30.5106 28.92C30.6573 28.6933 30.8306 28.52 31.0306 28.4C31.2306 28.28 31.484 28.22 31.7906 28.22C32.0973 28.22 32.384 28.3067 32.6506 28.48C32.9306 28.6533 33.2506 28.84 33.6106 29.04C33.9706 29.24 34.3906 29.4267 34.8706 29.6C35.364 29.7733 35.984 29.86 36.7306 29.86C37.3173 29.86 37.8173 29.7933 38.2306 29.66C38.6573 29.5133 39.004 29.3267 39.2706 29.1C39.5506 28.8733 39.7506 28.6133 39.8706 28.32C40.004 28.0133 40.0706 27.7 40.0706 27.38C40.0706 26.9 39.924 26.5067 39.6306 26.2C39.3506 25.8933 38.9706 25.6267 38.4906 25.4C38.024 25.1733 37.484 24.9733 36.8706 24.8C36.2706 24.6133 35.6506 24.4133 35.0106 24.2C34.384 23.9867 33.764 23.74 33.1506 23.46C32.5506 23.1667 32.0106 22.8 31.5306 22.36C31.064 21.92 30.684 21.38 30.3906 20.74C30.1106 20.1 29.9706 19.3267 29.9706 18.42C29.9706 17.58 30.1373 16.78 30.4706 16.02C30.804 15.26 31.2906 14.6 31.9306 14.04C32.584 13.4667 33.3906 13.0133 34.3506 12.68C35.324 12.3333 36.444 12.16 37.7106 12.16C39.124 12.16 40.4106 12.3933 41.5706 12.86C42.7306 13.3267 43.6973 13.94 44.4706 14.7L43.3506 16.48ZM53.0288 15C53.4421 14.5867 53.8754 14.2067 54.3288 13.86C54.7954 13.5 55.2821 13.2 55.7888 12.96C56.3088 12.7067 56.8621 12.5133 57.4488 12.38C58.0354 12.2333 58.6754 12.16 59.3688 12.16C60.4888 12.16 61.4821 12.3533 62.3488 12.74C63.2154 13.1133 63.9354 13.6467 64.5088 14.34C65.0954 15.02 65.5354 15.84 65.8288 16.8C66.1354 17.7467 66.2888 18.7933 66.2888 19.94V33H61.3488V19.94C61.3488 18.6867 61.0621 17.72 60.4888 17.04C59.9154 16.3467 59.0421 16 57.8688 16C57.0154 16 56.2154 16.1933 55.4688 16.58C54.7221 16.9667 54.0154 17.4933 53.3488 18.16V33H48.4088V12.48H51.4288C52.0688 12.48 52.4888 12.78 52.6888 13.38L53.0288 15Z" fill="#C800FA"/>
</g>
<path d="M0 3L27 20.5L0 38V3Z" fill="#FF7D54" fill-opacity="0.5"/>
<path d="M0.5 37.0801V3.91991L26.0807 20.5L0.5 37.0801Z" stroke="#FF7B52" stroke-opacity="0.1"/>
<defs>
<filter id="filter0_d_14_12" x="2.21997" y="4.07996" width="68.0687" height="37.24" filterUnits="userSpaceOnUse" color-interpolation-filters="sRGB">
<feFlood flood-opacity="0" result="BackgroundImageFix"/>
<feColorMatrix in="SourceAlpha" type="matrix" values="0 0 0 0 0 0 0 0 0 0 0 0 0 0 0 0 0 0 127 0" result="hardAlpha"/>
<feOffset dy="4"/>
<feGaussianBlur stdDeviation="2"/>
<feComposite in2="hardAlpha" operator="out"/>
<feColorMatrix type="matrix" values="0 0 0 0 0 0 0 0 0 0 0 0 0 0 0 0 0 0 0.25 0"/>
<feBlend mode="normal" in2="BackgroundImageFix" result="effect1_dropShadow_14_12"/>
<feBlend mode="normal" in="SourceGraphic" in2="effect1_dropShadow_14_12" result="shape"/>
</filter>
</defs>
</svg>
