<svg xmlns="http://www.w3.org/2000/svg" width="308" height="46" fill="none" viewBox="0 0 308 46">
  <g filter="url(#a)">
    <mask id="b" width="301" height="40" x="4" y="-1" fill="#000" maskUnits="userSpaceOnUse">
      <path fill="#fff" d="M4-1h301v40H4z"/>
      <path d="M4.403 37V.636H16.69c2.841 0 5.173.486 6.996 1.456 1.823.96 3.172 2.279 4.048 3.96.876 1.68 1.314 3.592 1.314 5.735 0 2.143-.438 4.042-1.314 5.7-.876 1.657-2.22 2.959-4.03 3.906-1.811.935-4.125 1.402-6.943 1.402H6.818v-3.977h9.801c1.942 0 3.504-.284 4.688-.852 1.195-.568 2.06-1.373 2.592-2.415.545-1.053.817-2.308.817-3.764s-.272-2.729-.817-3.818c-.544-1.089-1.414-1.929-2.61-2.52-1.196-.605-2.776-.906-4.74-.906H8.806V37H4.403ZM21.52 20.665 30.469 37h-5.114l-8.807-16.335h4.972ZM36.386 37V.636h21.946v3.907H40.789V16.83h16.407v3.906H40.788v12.358h17.827V37h-22.23ZM86.155 9.727c-.213-1.799-1.077-3.196-2.592-4.19-1.516-.994-3.374-1.492-5.576-1.492-1.61 0-3.018.26-4.225.782-1.196.52-2.131 1.237-2.806 2.148-.663.912-.994 1.947-.994 3.107 0 .971.23 1.805.692 2.504a6.143 6.143 0 0 0 1.811 1.722c.734.45 1.504.823 2.309 1.119a28.55 28.55 0 0 0 2.22.692l3.692.995c.947.248 2 .591 3.16 1.03a14.589 14.589 0 0 1 3.357 1.793 9.13 9.13 0 0 1 2.663 2.876c.698 1.172 1.047 2.61 1.047 4.315 0 1.965-.514 3.74-1.544 5.327-1.018 1.586-2.51 2.846-4.475 3.782-1.953.935-4.326 1.402-7.12 1.402-2.604 0-4.859-.42-6.765-1.26-1.894-.84-3.385-2.013-4.474-3.516-1.077-1.503-1.687-3.25-1.829-5.238h4.546c.118 1.373.58 2.51 1.385 3.41.816.887 1.846 1.55 3.089 1.988 1.255.426 2.604.639 4.048.639 1.681 0 3.19-.272 4.528-.817 1.338-.556 2.397-1.326 3.178-2.308.781-.994 1.172-2.154 1.172-3.48 0-1.208-.337-2.19-1.012-2.948-.675-.757-1.562-1.373-2.663-1.846a27.83 27.83 0 0 0-3.57-1.243l-4.474-1.279c-2.84-.816-5.09-1.982-6.747-3.497S65.7 12.746 65.7 10.296c0-2.037.55-3.812 1.652-5.327 1.112-1.527 2.604-2.711 4.474-3.551C73.708.565 75.81.139 78.13.139c2.344 0 4.427.42 6.25 1.26 1.823.83 3.267 1.966 4.333 3.41 1.077 1.444 1.645 3.084 1.704 4.918h-4.261Zm42.68 9.091c0 3.835-.692 7.15-2.077 9.943-1.385 2.794-3.285 4.948-5.7 6.463-2.415 1.516-5.173 2.273-8.274 2.273-3.101 0-5.859-.757-8.274-2.273-2.415-1.515-4.315-3.67-5.7-6.463-1.385-2.793-2.077-6.108-2.077-9.943s.692-7.15 2.077-9.943c1.385-2.794 3.285-4.948 5.7-6.463 2.415-1.515 5.173-2.273 8.274-2.273 3.101 0 5.859.758 8.274 2.273 2.415 1.515 4.315 3.67 5.7 6.463 1.385 2.794 2.077 6.108 2.077 9.943Zm-4.261 0c0-3.149-.527-5.806-1.58-7.972-1.042-2.166-2.457-3.806-4.244-4.918-1.776-1.113-3.764-1.67-5.966-1.67-2.202 0-4.196.557-5.984 1.67-1.775 1.112-3.19 2.752-4.243 4.918-1.042 2.166-1.563 4.823-1.563 7.972s.521 5.806 1.563 7.973c1.053 2.166 2.468 3.805 4.243 4.918 1.788 1.113 3.782 1.669 5.984 1.669s4.19-.556 5.966-1.67c1.787-1.112 3.202-2.751 4.244-4.917 1.053-2.167 1.58-4.824 1.58-7.973ZM165.075.636V37h-4.262L140.998 8.449h-.355V37h-4.404V.636h4.262l19.886 28.623h.355V.636h4.333ZM175.377 37h-4.616L184.113.636h4.546L202.011 37h-4.617L186.528 6.39h-.284L175.377 37Zm1.705-14.204h18.608v3.906h-18.608v-3.907ZM236.51.636V37h-4.261L212.433 8.449h-.355V37h-4.403V.636h4.261l19.887 28.623h.355V.636h4.332ZM274.583 12h-4.404c-.26-1.267-.716-2.38-1.367-3.338a9.091 9.091 0 0 0-2.344-2.415 9.939 9.939 0 0 0-3.036-1.491 12.128 12.128 0 0 0-3.48-.497c-2.202 0-4.196.556-5.984 1.669-1.775 1.112-3.19 2.752-4.243 4.918-1.042 2.166-1.563 4.823-1.563 7.972s.521 5.806 1.563 7.973c1.053 2.166 2.468 3.805 4.243 4.918 1.788 1.113 3.782 1.669 5.984 1.669a12.13 12.13 0 0 0 3.48-.497 10.176 10.176 0 0 0 3.036-1.474 9.343 9.343 0 0 0 2.344-2.433c.651-.97 1.107-2.083 1.367-3.338h4.404c-.332 1.859-.935 3.522-1.811 4.99a13.64 13.64 0 0 1-3.267 3.746 14.305 14.305 0 0 1-4.386 2.326c-1.61.533-3.332.8-5.167.8-3.101 0-5.859-.758-8.274-2.274-2.415-1.515-4.315-3.67-5.7-6.463-1.385-2.793-2.077-6.108-2.077-9.943s.692-7.15 2.077-9.943c1.385-2.794 3.285-4.948 5.7-6.463 2.415-1.515 5.173-2.273 8.274-2.273 1.835 0 3.557.267 5.167.8a14.098 14.098 0 0 1 4.386 2.343 13.396 13.396 0 0 1 3.267 3.729c.876 1.456 1.479 3.119 1.811 4.989Zm7.115 25V.636h21.946v3.907h-17.542V16.83h16.406v3.906h-16.406v12.358h17.826V37h-22.23Z"/>
    </mask>
    <path fill="#fff" d="M4.403 37V.636H16.69c2.841 0 5.173.486 6.996 1.456 1.823.96 3.172 2.279 4.048 3.96.876 1.68 1.314 3.592 1.314 5.735 0 2.143-.438 4.042-1.314 5.7-.876 1.657-2.22 2.959-4.03 3.906-1.811.935-4.125 1.402-6.943 1.402H6.818v-3.977h9.801c1.942 0 3.504-.284 4.688-.852 1.195-.568 2.06-1.373 2.592-2.415.545-1.053.817-2.308.817-3.764s-.272-2.729-.817-3.818c-.544-1.089-1.414-1.929-2.61-2.52-1.196-.605-2.776-.906-4.74-.906H8.806V37H4.403ZM21.52 20.665 30.469 37h-5.114l-8.807-16.335h4.972ZM36.386 37V.636h21.946v3.907H40.789V16.83h16.407v3.906H40.788v12.358h17.827V37h-22.23ZM86.155 9.727c-.213-1.799-1.077-3.196-2.592-4.19-1.516-.994-3.374-1.492-5.576-1.492-1.61 0-3.018.26-4.225.782-1.196.52-2.131 1.237-2.806 2.148-.663.912-.994 1.947-.994 3.107 0 .971.23 1.805.692 2.504a6.143 6.143 0 0 0 1.811 1.722c.734.45 1.504.823 2.309 1.119a28.55 28.55 0 0 0 2.22.692l3.692.995c.947.248 2 .591 3.16 1.03a14.589 14.589 0 0 1 3.357 1.793 9.13 9.13 0 0 1 2.663 2.876c.698 1.172 1.047 2.61 1.047 4.315 0 1.965-.514 3.74-1.544 5.327-1.018 1.586-2.51 2.846-4.475 3.782-1.953.935-4.326 1.402-7.12 1.402-2.604 0-4.859-.42-6.765-1.26-1.894-.84-3.385-2.013-4.474-3.516-1.077-1.503-1.687-3.25-1.829-5.238h4.546c.118 1.373.58 2.51 1.385 3.41.816.887 1.846 1.55 3.089 1.988 1.255.426 2.604.639 4.048.639 1.681 0 3.19-.272 4.528-.817 1.338-.556 2.397-1.326 3.178-2.308.781-.994 1.172-2.154 1.172-3.48 0-1.208-.337-2.19-1.012-2.948-.675-.757-1.562-1.373-2.663-1.846a27.83 27.83 0 0 0-3.57-1.243l-4.474-1.279c-2.84-.816-5.09-1.982-6.747-3.497S65.7 12.746 65.7 10.296c0-2.037.55-3.812 1.652-5.327 1.112-1.527 2.604-2.711 4.474-3.551C73.708.565 75.81.139 78.13.139c2.344 0 4.427.42 6.25 1.26 1.823.83 3.267 1.966 4.333 3.41 1.077 1.444 1.645 3.084 1.704 4.918h-4.261Zm42.68 9.091c0 3.835-.692 7.15-2.077 9.943-1.385 2.794-3.285 4.948-5.7 6.463-2.415 1.516-5.173 2.273-8.274 2.273-3.101 0-5.859-.757-8.274-2.273-2.415-1.515-4.315-3.67-5.7-6.463-1.385-2.793-2.077-6.108-2.077-9.943s.692-7.15 2.077-9.943c1.385-2.794 3.285-4.948 5.7-6.463 2.415-1.515 5.173-2.273 8.274-2.273 3.101 0 5.859.758 8.274 2.273 2.415 1.515 4.315 3.67 5.7 6.463 1.385 2.794 2.077 6.108 2.077 9.943Zm-4.261 0c0-3.149-.527-5.806-1.58-7.972-1.042-2.166-2.457-3.806-4.244-4.918-1.776-1.113-3.764-1.67-5.966-1.67-2.202 0-4.196.557-5.984 1.67-1.775 1.112-3.19 2.752-4.243 4.918-1.042 2.166-1.563 4.823-1.563 7.972s.521 5.806 1.563 7.973c1.053 2.166 2.468 3.805 4.243 4.918 1.788 1.113 3.782 1.669 5.984 1.669s4.19-.556 5.966-1.67c1.787-1.112 3.202-2.751 4.244-4.917 1.053-2.167 1.58-4.824 1.58-7.973ZM165.075.636V37h-4.262L140.998 8.449h-.355V37h-4.404V.636h4.262l19.886 28.623h.355V.636h4.333ZM175.377 37h-4.616L184.113.636h4.546L202.011 37h-4.617L186.528 6.39h-.284L175.377 37Zm1.705-14.204h18.608v3.906h-18.608v-3.907ZM236.51.636V37h-4.261L212.433 8.449h-.355V37h-4.403V.636h4.261l19.887 28.623h.355V.636h4.332ZM274.583 12h-4.404c-.26-1.267-.716-2.38-1.367-3.338a9.091 9.091 0 0 0-2.344-2.415 9.939 9.939 0 0 0-3.036-1.491 12.128 12.128 0 0 0-3.48-.497c-2.202 0-4.196.556-5.984 1.669-1.775 1.112-3.19 2.752-4.243 4.918-1.042 2.166-1.563 4.823-1.563 7.972s.521 5.806 1.563 7.973c1.053 2.166 2.468 3.805 4.243 4.918 1.788 1.113 3.782 1.669 5.984 1.669a12.13 12.13 0 0 0 3.48-.497 10.176 10.176 0 0 0 3.036-1.474 9.343 9.343 0 0 0 2.344-2.433c.651-.97 1.107-2.083 1.367-3.338h4.404c-.332 1.859-.935 3.522-1.811 4.99a13.64 13.64 0 0 1-3.267 3.746 14.305 14.305 0 0 1-4.386 2.326c-1.61.533-3.332.8-5.167.8-3.101 0-5.859-.758-8.274-2.274-2.415-1.515-4.315-3.67-5.7-6.463-1.385-2.793-2.077-6.108-2.077-9.943s.692-7.15 2.077-9.943c1.385-2.794 3.285-4.948 5.7-6.463 2.415-1.515 5.173-2.273 8.274-2.273 1.835 0 3.557.267 5.167.8a14.098 14.098 0 0 1 4.386 2.343 13.396 13.396 0 0 1 3.267 3.729c.876 1.456 1.479 3.119 1.811 4.989Zm7.115 25V.636h21.946v3.907h-17.542V16.83h16.406v3.906h-16.406v12.358h17.826V37h-22.23Z"/>
    <path fill="#000" d="M4.403 37h-.4v.4h.4V37Zm0-36.364v-.4h-.4v.4h.4Zm19.283 1.456-.188.353.002.001.186-.354Zm4.048 3.96-.354.185.354-.185Zm0 11.434-.353-.186.353.186Zm-4.03 3.907.183.355h.002l-.185-.355ZM6.818 22.795h-.4v.4h.4v-.4Zm0-3.977v-.4h-.4v.4h.4Zm14.489-.852-.172-.361h-.001l.173.36Zm2.592-2.415-.355-.184-.001.002.356.182ZM21.29 5.448l-.18.357.003.002.177-.359ZM8.807 4.543v-.4h-.4v.4h.4Zm0 32.457v.4h.4V37h-.4ZM21.52 20.665l.35-.192-.113-.208h-.237v.4ZM30.469 37v.4h.675l-.324-.592-.351.192Zm-5.114 0-.352.19.113.21h.24V37Zm-8.807-16.335v-.4h-.67l.318.59.352-.19ZM4.803 37V.636h-.8V37h.8Zm-.4-35.964H16.69v-.8H4.403v.8Zm12.287 0c2.8 0 5.06.479 6.808 1.41l.376-.707C21.976.73 19.574.236 16.69.236v.8Zm6.81 1.41c1.757.925 3.045 2.188 3.88 3.79l.71-.369c-.918-1.76-2.33-3.135-4.218-4.129l-.372.708Zm3.88 3.79c.842 1.617 1.268 3.464 1.268 5.55h.8c0-2.197-.45-4.174-1.359-5.919l-.71.37Zm1.268 5.55c0 2.088-.426 3.922-1.267 5.514l.707.373c.91-1.722 1.36-3.688 1.36-5.886h-.8ZM27.381 17.3c-.835 1.579-2.116 2.825-3.863 3.738l.371.71c1.876-.982 3.282-2.34 4.199-4.075l-.707-.373Zm-3.86 3.737c-1.738.897-3.983 1.358-6.76 1.358v.8c2.858 0 5.241-.473 7.126-1.447l-.367-.71Zm-6.76 1.358H6.818v.8h9.943v-.8Zm-9.543.4v-3.977h-.8v3.977h.8Zm-.4-3.577h9.801v-.8h-9.8v.8Zm9.801 0c1.975 0 3.604-.288 4.86-.892l-.345-.72c-1.11.532-2.607.812-4.515.812v.8Zm4.86-.89c1.264-.602 2.198-1.465 2.776-2.595l-.712-.364c-.487.953-1.28 1.7-2.408 2.236l.343.722Zm2.776-2.593c.58-1.122.86-2.442.86-3.948h-.8c0 1.406-.262 2.595-.771 3.58l.71.368Zm.86-3.948c0-1.506-.28-2.842-.858-3.996l-.716.357c.512 1.024.775 2.233.775 3.639h.8Zm-.858-3.996c-.587-1.175-1.525-2.075-2.79-2.701l-.355.717c1.125.557 1.928 1.338 2.43 2.341l.715-.357Zm-2.788-2.7c-1.271-.642-2.92-.948-4.92-.948v.8c1.929 0 3.44.297 4.56.862l.36-.714Zm-4.92-.948H8.806v.8h7.741v-.8Zm-8.142.4V37h.8V4.543h-.8Zm.4 32.057H4.403v.8h4.404v-.8Zm12.362-15.743 8.949 16.335.702-.384-8.95-16.335-.7.384Zm9.3 15.743h-5.114v.8h5.114v-.8Zm-4.762.21L16.9 20.475l-.704.38 8.807 16.335.704-.38Zm-9.159-15.745h4.972v-.8h-4.972v.8ZM36.386 37h-.4v.4h.4V37Zm0-36.364v-.4h-.4v.4h.4Zm21.946 0h.4v-.4h-.4v.4Zm0 3.907v.4h.4v-.4h-.4Zm-17.543 0v-.4h-.4v.4h.4Zm0 12.287h-.4v.4h.4v-.4Zm16.407 0h.4v-.4h-.4v.4Zm0 3.906v.4h.4v-.4h-.4Zm-16.407 0v-.4h-.4v.4h.4Zm0 12.358h-.4v.4h.4v-.4Zm17.827 0h.4v-.4h-.4v.4Zm0 3.906v.4h.4V37h-.4Zm-21.83 0V.636h-.8V37h.8Zm-.4-35.964h21.946v-.8H36.386v.8Zm21.546-.4v3.907h.8V.636h-.8Zm.4 3.507H40.789v.8h17.543v-.8Zm-17.943.4V16.83h.8V4.542h-.8Zm.4 12.687h16.407v-.8H40.788v.8Zm16.006-.4v3.906h.8v-3.907h-.8Zm.4 3.506H40.79v.8h16.407v-.8Zm-16.806.4v12.358h.8V20.736h-.8Zm.4 12.758h17.827v-.8H40.789v.8Zm17.427-.4V37h.8v-3.906h-.8Zm.4 3.506h-22.23v.8h22.23v-.8ZM86.155 9.727l-.397.047.042.353h.355v-.4Zm-2.592-4.19-.22.334.22-.334Zm-9.802-.71-.158-.368-.001.001.16.367Zm-2.805 2.148-.321-.238-.002.003.323.235Zm-.302 5.61-.334.222.005.006.33-.227Zm1.811 1.723-.213.339.004.002.21-.34Zm2.309 1.119-.138.375.005.002.133-.377Zm2.22.692.103-.386h-.002l-.102.386Zm3.692.995-.104.386h.003l.101-.386Zm3.16 1.03-.14.374.14-.375Zm3.357 1.793-.232.326.004.003.228-.33Zm2.663 2.876.344-.205-.344.205Zm-.497 9.642-.336-.218v.002l.336.216Zm-4.475 3.782-.172-.362.172.361Zm-13.885.142-.162.365h.001l.161-.365Zm-4.474-3.516-.325.233.001.002.324-.235Zm-1.829-5.238v-.4h-.43l.031.428.4-.028Zm4.546 0 .398-.034-.031-.366h-.367v.4Zm1.385 3.41-.299.266.004.004.294-.27Zm3.089 1.988-.133.377.004.002.129-.38Zm8.576-.178.15.37h.004l-.154-.37Zm3.178-2.308.313.249.002-.002-.315-.247Zm.16-6.428.299-.266-.299.266Zm-2.663-1.846-.158.367.158-.367Zm-3.57-1.243-.109.384.003.001.107-.385Zm-4.474-1.279-.11.385.11-.385Zm-6.747-3.497-.27.295.27-.295Zm-.834-11.275-.324-.236.324.236Zm4.474-3.551.164.364h.001l-.165-.364ZM84.38 1.4l-.167.363.002.001.165-.364Zm4.333 3.409-.322.237.001.002.32-.239Zm1.704 4.918v.4h.413l-.013-.413-.4.013Zm-3.864-.047c-.227-1.916-1.156-3.418-2.77-4.477l-.439.668c1.417.93 2.216 2.221 2.415 3.903l.794-.094Zm-2.77-4.477c-1.593-1.046-3.532-1.558-5.795-1.558v.8c2.141 0 3.92.483 5.356 1.426l.44-.668Zm-5.795-1.558c-1.652 0-3.117.268-4.384.814l.317.735c1.147-.495 2.5-.749 4.067-.749v-.8Zm-4.385.815c-1.25.545-2.245 1.301-2.967 2.277l.643.476c.627-.847 1.502-1.522 2.643-2.02l-.32-.733Zm-2.97 2.28c-.714.982-1.07 2.1-1.07 3.342h.8c0-1.078.306-2.03.918-2.872l-.647-.47Zm-1.07 3.342c0 1.037.247 1.95.759 2.724l.667-.44c-.412-.624-.626-1.379-.626-2.284h-.8Zm.763 2.731a6.542 6.542 0 0 0 1.927 1.834l.426-.677a5.743 5.743 0 0 1-1.694-1.611l-.659.454Zm1.931 1.836c.757.464 1.55.848 2.38 1.153l.276-.75a12.575 12.575 0 0 1-2.238-1.085l-.418.682Zm2.385 1.155a28.92 28.92 0 0 0 2.25.702l.204-.774a28.205 28.205 0 0 1-2.188-.682l-.266.754Zm2.248.702 3.693.994.208-.773-3.693-.994-.208.773Zm3.696.994c.93.245 1.97.583 3.12 1.018l.283-.749a32.614 32.614 0 0 0-3.2-1.042l-.203.773Zm3.122 1.018a14.187 14.187 0 0 1 3.264 1.745l.463-.652a14.993 14.993 0 0 0-3.447-1.842l-.28.75Zm3.268 1.748a8.731 8.731 0 0 1 2.547 2.752l.688-.41a9.534 9.534 0 0 0-2.78-3l-.455.658Zm2.547 2.752c.654 1.096.991 2.46.991 4.11h.8c0-1.759-.36-3.272-1.103-4.52l-.688.41Zm.991 4.11c0 1.89-.494 3.59-1.48 5.109l.671.435c1.074-1.653 1.61-3.505 1.61-5.544h-.8Zm-1.48 5.11c-.973 1.515-2.402 2.73-4.31 3.637l.343.723c2.022-.962 3.575-2.27 4.64-3.927l-.674-.432Zm-4.311 3.638c-1.886.903-4.197 1.363-6.948 1.363v.8c2.837 0 5.273-.474 7.293-1.442l-.345-.721Zm-6.948 1.363c-2.562 0-4.76-.413-6.603-1.226l-.323.732c1.968.867 4.28 1.294 6.926 1.294v-.8Zm-6.602-1.226c-1.837-.815-3.27-1.945-4.313-3.385l-.648.47c1.135 1.566 2.685 2.78 4.636 3.646l.325-.731ZM66.86 32.63c-1.03-1.439-1.618-3.113-1.755-5.034l-.798.058c.147 2.056.78 3.874 1.903 5.442l.65-.466Zm-2.154-4.605h4.546v-.8h-4.546v.8Zm4.147-.366c.125 1.447.615 2.669 1.485 3.642l.597-.534c-.74-.826-1.173-1.877-1.285-3.176l-.797.068Zm1.49 3.646c.864.94 1.951 1.637 3.25 2.095l.266-.755c-1.187-.418-2.16-1.046-2.928-1.882l-.589.542Zm3.254 2.096c1.3.442 2.693.66 4.177.66v-.8c-1.404 0-2.71-.206-3.92-.617l-.257.758Zm4.177.66c1.725 0 3.286-.278 4.679-.845l-.302-.741c-1.282.522-2.74.787-4.377.787v.8Zm4.682-.846c1.39-.579 2.508-1.386 3.337-2.43l-.626-.497c-.733.922-1.734 1.653-3.019 2.188l.308.739Zm3.339-2.43c.84-1.07 1.257-2.317 1.257-3.728h-.8c0 1.24-.363 2.313-1.086 3.233l.629.494Zm1.257-3.728c0-1.286-.361-2.37-1.113-3.214l-.598.532c.598.671.911 1.553.911 2.682h.8Zm-1.113-3.214c-.72-.808-1.66-1.455-2.804-1.948l-.316.735c1.056.455 1.893 1.039 2.522 1.745l.598-.532Zm-2.804-1.948a28.384 28.384 0 0 0-3.62-1.26l-.214.77c1.263.351 2.435.76 3.518 1.225l.316-.735Zm-3.617-1.26-4.475-1.278-.22.77 4.475 1.277.22-.769Zm-4.474-1.278c-2.8-.805-4.988-1.946-6.588-3.409l-.54.59c1.715 1.569 4.025 2.76 6.907 3.588l.22-.769Zm-6.588-3.409c-1.566-1.432-2.356-3.303-2.356-5.652h-.8c0 2.55.868 4.645 2.616 6.243l.54-.59ZM66.1 10.296c0-1.96.529-3.651 1.575-5.092l-.647-.47c-1.155 1.59-1.728 3.449-1.728 5.562h.8Zm1.575-5.092c1.068-1.466 2.503-2.607 4.315-3.422l-.328-.73c-1.928.867-3.476 2.093-4.634 3.681l.647.471Zm4.316-3.422C73.815.956 75.86.539 78.13.539v-.8c-2.37 0-4.528.436-6.468 1.314l.33.729ZM78.13.539c2.296 0 4.32.412 6.083 1.224l.335-.726C82.663.168 80.52-.261 78.129-.261v.8Zm6.085 1.225c1.768.804 3.156 1.9 4.176 3.282l.644-.475c-1.11-1.505-2.611-2.682-4.489-3.535l-.331.728Zm4.177 3.284c1.027 1.377 1.569 2.938 1.626 4.692l.8-.026c-.063-1.914-.657-3.633-1.784-5.144l-.642.478Zm2.025 4.28h-4.261v.8h4.261v-.8Zm36.342 19.433-.359-.177.359.177Zm-5.7 6.463.213.34-.213-.34Zm-16.548 0-.213.34.213-.34Zm-5.7-6.463.359-.177-.359.177Zm22.248-26.35.213-.338-.213.339Zm5.7 6.464-.359.178.359-.178Zm-3.764 1.97-.361.174.001.002.36-.175Zm-4.244-4.917-.212.338.001.001.211-.34Zm-11.95 0-.211-.34h-.001l.212.34Zm-4.243 4.918-.36-.175-.001.002.361.173Zm0 15.945-.361.173.001.001.36-.174Zm4.243 4.918-.212.339h.001l.211-.34Zm11.95 0-.211-.34h-.001l.212.34Zm4.244-4.918-.36-.175-.001.001.361.174Zm5.441-7.973c0 3.788-.684 7.039-2.036 9.766l.717.355c1.418-2.86 2.119-6.238 2.119-10.12h-.8Zm-2.036 9.766c-1.355 2.733-3.207 4.83-5.553 6.302l.425.677c2.483-1.558 4.431-3.77 5.845-6.624l-.717-.355Zm-5.553 6.302c-2.346 1.471-5.029 2.211-8.062 2.211v.8c3.17 0 6.003-.775 8.487-2.334l-.425-.677Zm-8.062 2.211c-3.033 0-5.716-.74-8.061-2.211l-.426.677c2.484 1.559 5.317 2.334 8.487 2.334v-.8Zm-8.061-2.211c-2.347-1.473-4.199-3.569-5.554-6.302l-.717.355c1.415 2.853 3.362 5.066 5.845 6.624l.426-.677Zm-5.554-6.302c-1.352-2.727-2.036-5.978-2.036-9.766h-.8c0 3.883.701 7.261 2.119 10.121l.717-.355Zm-2.036-9.766c0-3.787.684-7.038 2.036-9.765l-.717-.356c-1.418 2.86-2.119 6.238-2.119 10.121h.8Zm2.036-9.765c1.355-2.734 3.207-4.83 5.554-6.302l-.426-.678c-2.483 1.558-4.43 3.771-5.845 6.624l.717.356Zm5.554-6.302c2.345-1.472 5.028-2.212 8.061-2.212v-.8c-3.17 0-6.003.775-8.487 2.334l.426.678Zm8.061-2.212c3.033 0 5.716.74 8.062 2.212l.425-.678C118.787.514 115.954-.26 112.784-.26v.8Zm8.062 2.212c2.346 1.472 4.198 3.568 5.553 6.302l.717-.356c-1.414-2.853-3.362-5.066-5.845-6.624l-.425.678Zm5.553 6.302c1.352 2.727 2.036 5.978 2.036 9.765h.8c0-3.883-.701-7.26-2.119-10.12l-.717.355Zm-1.425 9.765c0-3.191-.534-5.912-1.621-8.147l-.719.35c1.02 2.097 1.54 4.691 1.54 7.797h.8Zm-1.62-8.146c-1.07-2.224-2.532-3.926-4.393-5.084l-.422.68c1.714 1.066 3.081 2.644 4.094 4.751l.721-.347Zm-4.392-5.083c-1.842-1.155-3.905-1.73-6.178-1.73v.8c2.131 0 4.045.537 5.754 1.607l.424-.677Zm-6.178-1.73c-2.273 0-4.341.575-6.195 1.729l.423.68c1.721-1.072 3.642-1.61 5.772-1.61v-.8Zm-6.196 1.73c-1.848 1.158-3.31 2.859-4.391 5.082l.72.35c1.025-2.11 2.393-3.687 4.096-4.755l-.425-.677Zm-4.392 5.083c-1.074 2.235-1.602 4.955-1.602 8.146h.8c0-3.106.514-5.7 1.523-7.799l-.721-.347Zm-1.602 8.146c0 3.191.528 5.912 1.602 8.146l.721-.347c-1.009-2.098-1.523-4.692-1.523-7.799h-.8Zm1.603 8.147c1.081 2.224 2.543 3.925 4.391 5.083l.425-.678c-1.703-1.067-3.071-2.645-4.096-4.755l-.72.35Zm4.392 5.083c1.854 1.154 3.922 1.73 6.195 1.73v-.8c-2.13 0-4.051-.537-5.772-1.609l-.423.68Zm6.195 1.73c2.273 0 4.336-.576 6.178-1.73l-.424-.678c-1.709 1.07-3.623 1.608-5.754 1.608v.8Zm6.177-1.73c1.861-1.158 3.323-2.86 4.393-5.084l-.721-.347c-1.013 2.108-2.38 3.685-4.094 4.752l.422.68Zm4.392-5.083c1.087-2.234 1.621-4.955 1.621-8.147h-.8c0 3.106-.52 5.7-1.54 7.797l.719.35ZM165.075.636h.4v-.4h-.4v.4Zm0 36.364v.4h.4V37h-.4Zm-4.262 0-.328.228.119.172h.209V37ZM140.998 8.449l.328-.228-.119-.172h-.209v.4Zm-.355 0v-.4h-.4v.4h.4Zm0 28.551v.4h.4V37h-.4Zm-4.404 0h-.4v.4h.4V37Zm0-36.364v-.4h-.4v.4h.4Zm4.262 0 .328-.228-.119-.172h-.209v.4Zm19.886 28.623-.328.228.119.172h.209v-.4Zm.355 0v.4h.4v-.4h-.4Zm0-28.623v-.4h-.4v.4h.4Zm3.933 0V37h.8V.636h-.8Zm.4 35.964h-4.262v.8h4.262v-.8Zm-3.933.172L141.326 8.22l-.657.456 19.816 28.551.657-.456ZM140.998 8.049h-.355v.8h.355v-.8Zm-.755.4V37h.8V8.449h-.8Zm.4 28.151h-4.404v.8h4.404v-.8Zm-4.004.4V.636h-.8V37h.8Zm-.4-35.964h4.262v-.8h-4.262v.8Zm3.933-.171 19.887 28.622.657-.457L140.829.408l-.657.457Zm20.215 28.794h.355v-.8h-.355v.8Zm.755-.4V.636h-.8V29.26h.8Zm-.4-28.223h4.333v-.8h-4.333v.8ZM175.377 37v.4h.283l.094-.266-.377-.134Zm-4.616 0-.376-.138-.197.538h.573V37ZM184.113.636v-.4h-.279l-.096.262.375.138Zm4.546 0 .375-.138-.096-.262h-.279v.4ZM202.011 37v.4h.573l-.198-.538-.375.138Zm-4.617 0-.377.134.095.266h.282V37ZM186.528 6.39l.377-.135-.095-.266h-.282v.4Zm-.284 0v-.4h-.283l-.094.265.377.134Zm-9.162 16.406v-.4h-.4v.4h.4Zm18.608 0h.4v-.4h-.4v.4Zm0 3.906v.4h.4v-.4h-.4Zm-18.608 0h-.4v.4h.4v-.4Zm-1.705 9.898h-4.616v.8h4.616v-.8Zm-4.241.538L184.489.774l-.751-.276-13.353 36.364.751.276Zm12.977-36.102h4.546v-.8h-4.546v.8Zm4.17-.262 13.352 36.364.751-.276L189.034.498l-.751.276ZM202.011 36.6h-4.617v.8h4.617v-.8Zm-4.24.266-10.866-30.61-.754.267 10.866 30.61.754-.267ZM186.528 5.99h-.284v.8h.284v-.8Zm-.661.266L175 36.866l.754.268 10.867-30.611-.754-.268Zm-8.785 16.94h18.608v-.8h-18.608v.8Zm18.208-.4v3.907h.8v-3.907h-.8Zm.4 3.507h-18.608v.8h18.608v-.8Zm-18.208.4v-3.907h-.8v3.907h.8ZM236.51.636h.4v-.4h-.4v.4Zm0 36.364v.4h.4V37h-.4Zm-4.261 0-.329.228.119.172h.21V37ZM212.433 8.449l.329-.228-.119-.172h-.21v.4Zm-.355 0v-.4h-.4v.4h.4Zm0 28.551v.4h.4V37h-.4Zm-4.403 0h-.4v.4h.4V37Zm0-36.364v-.4h-.4v.4h.4Zm4.261 0 .329-.228-.12-.172h-.209v.4Zm19.887 28.623-.329.228.119.172h.21v-.4Zm.355 0v.4h.4v-.4h-.4Zm0-28.623v-.4h-.4v.4h.4Zm3.932 0V37h.8V.636h-.8Zm.4 35.964h-4.261v.8h4.261v-.8Zm-3.933.172L212.762 8.22l-.657.456 19.815 28.551.657-.456ZM212.433 8.049h-.355v.8h.355v-.8Zm-.755.4V37h.8V8.449h-.8Zm.4 28.151h-4.403v.8h4.403v-.8Zm-4.003.4V.636h-.8V37h.8Zm-.4-35.964h4.261v-.8h-4.261v.8Zm3.933-.171 19.886 28.622.657-.457L212.265.408l-.657.457Zm20.215 28.794h.355v-.8h-.355v.8Zm.755-.4V.636h-.8V29.26h.8Zm-.4-28.223h4.332v-.8h-4.332v.8ZM274.583 12v.4h.477l-.083-.47-.394.07Zm-4.404 0-.391.08.065.32h.326V12Zm-1.367-3.338-.333.222.002.003.331-.225Zm-2.344-2.415-.235.324.005.003.23-.327Zm-3.036-1.491-.114.383.114-.383Zm-9.464 1.172-.211-.34h-.001l.212.34Zm-4.243 4.918-.36-.175-.001.002.361.173Zm0 15.945-.361.173.001.001.36-.174Zm4.243 4.918-.212.339h.001l.211-.34Zm9.464 1.172-.114-.384.114.384Zm3.036-1.474.233.326.001-.001-.234-.325Zm2.344-2.433-.332-.222h-.001l.333.222Zm1.367-3.338v-.4h-.325l-.066.32.391.08Zm4.404 0 .394.07.083-.47h-.477v.4Zm-1.811 4.99-.344-.205.344.205Zm-3.267 3.746.246.315.002-.001-.248-.314Zm-4.386 2.326-.125-.38h-.001l.126.38Zm-13.441-1.474-.213.34.213-.34Zm-5.7-6.463.359-.177-.359.177ZM265.119.938l-.126.38h.001l.125-.38Zm4.386 2.344-.249.314.002.001.247-.315Zm3.267 3.729-.344.205h.001l.343-.205Zm1.811 4.589h-4.404v.8h4.404v-.8Zm-4.012.32c-.27-1.313-.744-2.476-1.428-3.483l-.662.45c.618.91 1.055 1.973 1.307 3.194l.783-.162Zm-1.426-3.48a9.51 9.51 0 0 0-2.446-2.52l-.461.654a8.7 8.7 0 0 1 2.241 2.31l.666-.444Zm-2.441-2.516a10.359 10.359 0 0 0-3.158-1.552l-.228.767a9.546 9.546 0 0 1 2.915 1.432l.471-.647Zm-3.158-1.552a12.52 12.52 0 0 0-3.594-.513v.8c1.17 0 2.292.16 3.366.48l.228-.767Zm-3.594-.513c-2.273 0-4.341.575-6.195 1.729l.423.68c1.721-1.072 3.642-1.61 5.772-1.61v-.8Zm-6.196 1.73c-1.848 1.158-3.31 2.859-4.391 5.082l.72.35c1.025-2.11 2.393-3.687 4.096-4.755l-.425-.677Zm-4.392 5.083c-1.074 2.235-1.602 4.955-1.602 8.146h.8c0-3.106.514-5.7 1.523-7.799l-.721-.347Zm-1.602 8.146c0 3.191.528 5.912 1.602 8.146l.721-.347c-1.009-2.098-1.523-4.692-1.523-7.799h-.8Zm1.603 8.147c1.081 2.224 2.543 3.925 4.391 5.083l.425-.678c-1.703-1.067-3.071-2.645-4.096-4.755l-.72.35Zm4.392 5.083c1.854 1.154 3.922 1.73 6.195 1.73v-.8c-2.13 0-4.051-.537-5.772-1.609l-.423.68Zm6.195 1.73c1.245 0 2.443-.171 3.594-.514l-.228-.767c-1.074.32-2.196.48-3.366.48v.8Zm3.594-.514a10.585 10.585 0 0 0 3.155-1.532l-.465-.65a9.782 9.782 0 0 1-2.918 1.415l.228.767Zm3.156-1.532a9.762 9.762 0 0 0 2.443-2.536l-.666-.443a8.95 8.95 0 0 1-2.244 2.329l.467.65Zm2.442-2.535c.683-1.017 1.157-2.179 1.427-3.48l-.783-.162c-.251 1.21-.688 2.273-1.308 3.197l.664.445Zm1.035-3.16h4.404v-.8h-4.404v.8Zm4.01-.47c-.324 1.815-.912 3.432-1.761 4.854l.687.41c.903-1.514 1.522-3.223 1.862-5.124l-.788-.14Zm-1.761 4.854a13.24 13.24 0 0 1-3.172 3.637l.497.628a14.04 14.04 0 0 0 3.362-3.855l-.687-.41Zm-3.17 3.636a13.903 13.903 0 0 1-4.264 2.261l.25.76a14.714 14.714 0 0 0 4.507-2.39l-.493-.631Zm-4.265 2.261c-1.566.519-3.245.78-5.041.78v.8c1.874 0 3.639-.273 5.293-.82l-.252-.76Zm-5.041.78c-3.033 0-5.716-.74-8.061-2.212l-.426.677c2.484 1.559 5.317 2.334 8.487 2.334v-.8Zm-8.061-2.212c-2.347-1.473-4.199-3.569-5.554-6.302l-.717.355c1.415 2.853 3.362 5.066 5.845 6.624l.426-.677Zm-5.554-6.302c-1.352-2.727-2.036-5.978-2.036-9.766h-.8c0 3.883.701 7.261 2.119 10.121l.717-.355Zm-2.036-9.766c0-3.787.684-7.038 2.036-9.765l-.717-.356c-1.418 2.86-2.119 6.238-2.119 10.121h.8Zm2.036-9.765c1.355-2.734 3.207-4.83 5.554-6.302l-.426-.678c-2.483 1.558-4.43 3.771-5.845 6.624l.717.356Zm5.554-6.302c2.345-1.472 5.028-2.212 8.061-2.212v-.8c-3.17 0-6.003.775-8.487 2.334l.426.678Zm8.061-2.212c1.796 0 3.475.26 5.041.779l.252-.76c-1.654-.547-3.419-.819-5.293-.819v.8Zm5.042.78a13.7 13.7 0 0 1 4.262 2.277l.497-.628a14.502 14.502 0 0 0-4.509-2.41l-.25.76Zm4.264 2.278a12.983 12.983 0 0 1 3.17 3.619l.687-.41a13.792 13.792 0 0 0-3.364-3.84l-.493.631Zm3.171 3.62c.848 1.41 1.436 3.025 1.76 4.853l.788-.14c-.339-1.913-.959-3.623-1.863-5.126l-.685.413ZM281.698 37h-.4v.4h.4V37Zm0-36.364v-.4h-.4v.4h.4Zm21.946 0h.4v-.4h-.4v.4Zm0 3.907v.4h.4v-.4h-.4Zm-17.542 0v-.4h-.4v.4h.4Zm0 12.287h-.4v.4h.4v-.4Zm16.406 0h.4v-.4h-.4v.4Zm0 3.906v.4h.4v-.4h-.4Zm-16.406 0v-.4h-.4v.4h.4Zm0 12.358h-.4v.4h.4v-.4Zm17.826 0h.4v-.4h-.4v.4Zm0 3.906v.4h.4V37h-.4Zm-21.83 0V.636h-.8V37h.8Zm-.4-35.964h21.946v-.8h-21.946v.8Zm21.546-.4v3.907h.8V.636h-.8Zm.4 3.507h-17.542v.8h17.542v-.8Zm-17.942.4V16.83h.8V4.542h-.8Zm.4 12.687h16.406v-.8h-16.406v.8Zm16.006-.4v3.906h.8v-3.907h-.8Zm.4 3.506h-16.406v.8h16.406v-.8Zm-16.806.4v12.358h.8V20.736h-.8Zm.4 12.758h17.826v-.8h-17.826v.8Zm17.426-.4V37h.8v-3.906h-.8Zm.4 3.506h-22.23v.8h22.23v-.8Z" mask="url(#b)"/>
  </g>
  <defs>
    <filter id="a" width="307.525" height="45.5" x=".403" y=".139" color-interpolation-filters="sRGB" filterUnits="userSpaceOnUse">
      <feFlood flood-opacity="0" result="BackgroundImageFix"/>
      <feColorMatrix in="SourceAlpha" result="hardAlpha" values="0 0 0 0 0 0 0 0 0 0 0 0 0 0 0 0 0 0 127 0"/>
      <feOffset dy="4"/>
      <feGaussianBlur stdDeviation="2"/>
      <feComposite in2="hardAlpha" operator="out"/>
      <feColorMatrix values="0 0 0 0 0 0 0 0 0 0 0 0 0 0 0 0 0 0 0.25 0"/>
      <feBlend in2="BackgroundImageFix" result="effect1_dropShadow_2_3"/>
      <feBlend in="SourceGraphic" in2="effect1_dropShadow_2_3" result="shape"/>
    </filter>
  </defs>
</svg>
