<svg xmlns="http://www.w3.org/2000/svg" width="560" height="96" fill="none" viewBox="0 0 560 96">
  <g filter="url(#a)">
    <mask id="b" width="554" height="90" x="3" y="-1" fill="#000" maskUnits="userSpaceOnUse">
      <path fill="#fff" d="M3-1h554v90H3z"/>
      <path d="M45.102 86 22.309 50.14H11.937V86H4.38V1.977h26.66c2.852 0 5.527.546 8.027 1.64a20.392 20.392 0 0 1 6.563 4.395c1.875 1.875 3.34 4.082 4.394 6.62 1.094 2.5 1.641 5.177 1.641 8.028v6.797c0 2.852-.547 5.547-1.64 8.086a20.39 20.39 0 0 1-4.395 6.563c-1.875 1.874-4.063 3.359-6.563 4.453-2.5 1.054-5.175 1.582-8.027 1.582L53.832 86h-8.73Zm-.996-63.34c0-1.875-.352-3.613-1.055-5.215a13.503 13.503 0 0 0-2.871-4.277 13.038 13.038 0 0 0-4.278-2.93c-1.601-.703-3.34-1.054-5.215-1.054h-18.75v33.75h18.75c1.875 0 3.614-.352 5.215-1.055a13.501 13.501 0 0 0 4.278-2.871 14.441 14.441 0 0 0 2.87-4.278c.704-1.64 1.056-3.398 1.056-5.273V22.66ZM68.305 86V1.977h47.285v7.207H75.863v31.23h32.168v7.207H75.863v31.172h39.727V86H68.305Zm107.812-19.453c0 2.851-.586 5.527-1.758 8.027a21.025 21.025 0 0 1-4.629 6.563c-1.914 1.875-4.16 3.36-6.738 4.453-2.539 1.054-5.234 1.582-8.086 1.582h-6.035c-2.851 0-5.566-.528-8.144-1.582a22.49 22.49 0 0 1-6.739-4.453c-1.914-1.875-3.457-4.063-4.629-6.563-1.132-2.5-1.699-5.176-1.699-8.027v-3.34l7.559-1.23v4.57c0 1.875.371 3.633 1.113 5.273a15.177 15.177 0 0 0 3.106 4.278 14.773 14.773 0 0 0 4.453 2.87 14.097 14.097 0 0 0 5.39 1.055h5.274a13.67 13.67 0 0 0 5.332-1.054 14.785 14.785 0 0 0 4.453-2.871 14.276 14.276 0 0 0 3.047-4.278c.781-1.64 1.172-3.398 1.172-5.273v-2.52c0-2.89-.567-5.293-1.7-7.207-1.132-1.914-2.636-3.535-4.511-4.863-1.875-1.367-4.004-2.52-6.387-3.457a359.273 359.273 0 0 0-7.266-2.813 93.598 93.598 0 0 1-7.324-3.105 27.09 27.09 0 0 1-6.328-4.219c-1.875-1.718-3.379-3.808-4.512-6.27-1.133-2.46-1.699-5.488-1.699-9.081V21.43c0-2.852.527-5.528 1.582-8.028 1.094-2.5 2.578-4.687 4.453-6.562a20.394 20.394 0 0 1 6.563-4.395c2.539-1.093 5.234-1.64 8.086-1.64h5.39c2.852 0 5.528.547 8.028 1.64a20.39 20.39 0 0 1 6.562 4.395 20.398 20.398 0 0 1 4.395 6.562c1.093 2.5 1.64 5.176 1.64 8.028v2.168l-7.558 1.23V21.43c0-1.875-.352-3.614-1.055-5.215a13.5 13.5 0 0 0-2.871-4.277 13.51 13.51 0 0 0-4.277-2.872c-1.602-.703-3.34-1.054-5.215-1.054h-4.688c-1.875 0-3.633.351-5.273 1.054a14.438 14.438 0 0 0-4.278 2.871 13.5 13.5 0 0 0-2.871 4.278c-.703 1.601-1.054 3.34-1.054 5.215v1.582c0 2.695.566 4.96 1.699 6.797 1.133 1.835 2.637 3.418 4.512 4.746 1.875 1.289 3.984 2.422 6.328 3.398a722.87 722.87 0 0 1 7.324 2.93 76.31 76.31 0 0 1 7.266 3.281 26.151 26.151 0 0 1 6.386 4.395c1.875 1.718 3.379 3.828 4.512 6.328 1.133 2.5 1.699 5.547 1.699 9.14v2.52Zm62.344 0c0 2.851-.547 5.527-1.641 8.027a20.38 20.38 0 0 1-4.394 6.563c-1.875 1.875-4.063 3.36-6.563 4.453-2.5 1.054-5.175 1.582-8.027 1.582h-5.977c-2.851 0-5.547-.528-8.086-1.582-2.5-1.094-4.687-2.578-6.562-4.453-1.875-1.875-3.359-4.063-4.453-6.563-1.055-2.5-1.582-5.176-1.582-8.027V21.43c0-2.852.527-5.528 1.582-8.028 1.094-2.5 2.578-4.687 4.453-6.562a20.39 20.39 0 0 1 6.562-4.395c2.539-1.093 5.235-1.64 8.086-1.64h5.977c2.852 0 5.527.547 8.027 1.64a20.394 20.394 0 0 1 6.563 4.395 20.38 20.38 0 0 1 4.394 6.562c1.094 2.5 1.641 5.176 1.641 8.028v45.117Zm-7.559-45.117c0-1.875-.351-3.614-1.054-5.215a13.5 13.5 0 0 0-2.871-4.277 13.503 13.503 0 0 0-4.278-2.872c-1.601-.703-3.34-1.054-5.215-1.054h-5.273c-1.875 0-3.633.351-5.273 1.054a14.438 14.438 0 0 0-4.278 2.871 13.5 13.5 0 0 0-2.871 4.278c-.703 1.601-1.055 3.34-1.055 5.215v45.117c0 1.875.352 3.633 1.055 5.273a14.436 14.436 0 0 0 2.871 4.278 14.44 14.44 0 0 0 4.278 2.87c1.64.704 3.398 1.055 5.273 1.055h5.273c1.875 0 3.614-.351 5.215-1.054a13.505 13.505 0 0 0 4.278-2.871 14.436 14.436 0 0 0 2.871-4.278c.703-1.64 1.054-3.398 1.054-5.273V21.43ZM299.809 86 264.77 24.828l-.704-3.633V86h-7.558V1.977h3.926l35.039 61.23.761 3.574V1.977h7.559V86h-3.984Zm54.785-19.57h-26.602L322.484 86h-7.851l24.609-84.023h3.985L367.953 86h-7.793l-5.566-19.57Zm-24.551-7.207h22.559l-11.075-38.73-.234-3.106-.234 3.105-11.016 38.73ZM422.035 86l-35.039-61.172-.703-3.633V86h-7.559V1.977h3.926l35.039 61.23.762 3.574V1.977h7.559V86h-3.985Zm69.317-19.453c0 2.851-.547 5.527-1.641 8.027a20.398 20.398 0 0 1-4.395 6.563c-1.875 1.875-4.062 3.36-6.562 4.453-2.5 1.054-5.176 1.582-8.027 1.582h-5.977c-2.852 0-5.547-.528-8.086-1.582-2.5-1.094-4.687-2.578-6.562-4.453-1.875-1.875-3.36-4.063-4.454-6.563-1.054-2.5-1.582-5.176-1.582-8.027V21.43c0-2.852.528-5.528 1.582-8.028 1.094-2.5 2.579-4.687 4.454-6.562a20.39 20.39 0 0 1 6.562-4.395c2.539-1.093 5.234-1.64 8.086-1.64h5.977c2.851 0 5.527.547 8.027 1.64a20.39 20.39 0 0 1 6.562 4.395 20.398 20.398 0 0 1 4.395 6.562c1.094 2.5 1.641 5.176 1.641 8.028v3.398L483.793 26v-4.57c0-1.875-.352-3.614-1.055-5.215a13.5 13.5 0 0 0-2.871-4.277 13.51 13.51 0 0 0-4.277-2.872c-1.602-.703-3.34-1.054-5.215-1.054h-5.273c-1.875 0-3.633.351-5.274 1.054a14.446 14.446 0 0 0-4.277 2.871 13.5 13.5 0 0 0-2.871 4.278c-.703 1.601-1.055 3.34-1.055 5.215v45.117c0 1.875.352 3.633 1.055 5.273a14.436 14.436 0 0 0 2.871 4.278 14.448 14.448 0 0 0 4.277 2.87c1.641.704 3.399 1.055 5.274 1.055h5.273c1.875 0 3.613-.351 5.215-1.054a13.511 13.511 0 0 0 4.277-2.871 14.436 14.436 0 0 0 2.871-4.278c.703-1.64 1.055-3.398 1.055-5.273v-4.57l7.559 1.23v3.34ZM508.227 86V1.977h47.285v7.207h-39.727v31.23h32.168v7.207h-32.168v31.172h39.727V86h-47.285Z"/>
    </mask>
    <path fill="#fff" d="M45.102 86 22.309 50.14H11.937V86H4.38V1.977h26.66c2.852 0 5.527.546 8.027 1.64a20.392 20.392 0 0 1 6.563 4.395c1.875 1.875 3.34 4.082 4.394 6.62 1.094 2.5 1.641 5.177 1.641 8.028v6.797c0 2.852-.547 5.547-1.64 8.086a20.39 20.39 0 0 1-4.395 6.563c-1.875 1.874-4.063 3.359-6.563 4.453-2.5 1.054-5.175 1.582-8.027 1.582L53.832 86h-8.73Zm-.996-63.34c0-1.875-.352-3.613-1.055-5.215a13.503 13.503 0 0 0-2.871-4.277 13.038 13.038 0 0 0-4.278-2.93c-1.601-.703-3.34-1.054-5.215-1.054h-18.75v33.75h18.75c1.875 0 3.614-.352 5.215-1.055a13.501 13.501 0 0 0 4.278-2.871 14.441 14.441 0 0 0 2.87-4.278c.704-1.64 1.056-3.398 1.056-5.273V22.66ZM68.305 86V1.977h47.285v7.207H75.863v31.23h32.168v7.207H75.863v31.172h39.727V86H68.305Zm107.812-19.453c0 2.851-.586 5.527-1.758 8.027a21.025 21.025 0 0 1-4.629 6.563c-1.914 1.875-4.16 3.36-6.738 4.453-2.539 1.054-5.234 1.582-8.086 1.582h-6.035c-2.851 0-5.566-.528-8.144-1.582a22.49 22.49 0 0 1-6.739-4.453c-1.914-1.875-3.457-4.063-4.629-6.563-1.132-2.5-1.699-5.176-1.699-8.027v-3.34l7.559-1.23v4.57c0 1.875.371 3.633 1.113 5.273a15.177 15.177 0 0 0 3.106 4.278 14.773 14.773 0 0 0 4.453 2.87 14.097 14.097 0 0 0 5.39 1.055h5.274a13.67 13.67 0 0 0 5.332-1.054 14.785 14.785 0 0 0 4.453-2.871 14.276 14.276 0 0 0 3.047-4.278c.781-1.64 1.172-3.398 1.172-5.273v-2.52c0-2.89-.567-5.293-1.7-7.207-1.132-1.914-2.636-3.535-4.511-4.863-1.875-1.367-4.004-2.52-6.387-3.457a359.273 359.273 0 0 0-7.266-2.813 93.598 93.598 0 0 1-7.324-3.105 27.09 27.09 0 0 1-6.328-4.219c-1.875-1.718-3.379-3.808-4.512-6.27-1.133-2.46-1.699-5.488-1.699-9.081V21.43c0-2.852.527-5.528 1.582-8.028 1.094-2.5 2.578-4.687 4.453-6.562a20.394 20.394 0 0 1 6.563-4.395c2.539-1.093 5.234-1.64 8.086-1.64h5.39c2.852 0 5.528.547 8.028 1.64a20.39 20.39 0 0 1 6.562 4.395 20.398 20.398 0 0 1 4.395 6.562c1.093 2.5 1.64 5.176 1.64 8.028v2.168l-7.558 1.23V21.43c0-1.875-.352-3.614-1.055-5.215a13.5 13.5 0 0 0-2.871-4.277 13.51 13.51 0 0 0-4.277-2.872c-1.602-.703-3.34-1.054-5.215-1.054h-4.688c-1.875 0-3.633.351-5.273 1.054a14.438 14.438 0 0 0-4.278 2.871 13.5 13.5 0 0 0-2.871 4.278c-.703 1.601-1.054 3.34-1.054 5.215v1.582c0 2.695.566 4.96 1.699 6.797 1.133 1.835 2.637 3.418 4.512 4.746 1.875 1.289 3.984 2.422 6.328 3.398a722.87 722.87 0 0 1 7.324 2.93 76.31 76.31 0 0 1 7.266 3.281 26.151 26.151 0 0 1 6.386 4.395c1.875 1.718 3.379 3.828 4.512 6.328 1.133 2.5 1.699 5.547 1.699 9.14v2.52Zm62.344 0c0 2.851-.547 5.527-1.641 8.027a20.38 20.38 0 0 1-4.394 6.563c-1.875 1.875-4.063 3.36-6.563 4.453-2.5 1.054-5.175 1.582-8.027 1.582h-5.977c-2.851 0-5.547-.528-8.086-1.582-2.5-1.094-4.687-2.578-6.562-4.453-1.875-1.875-3.359-4.063-4.453-6.563-1.055-2.5-1.582-5.176-1.582-8.027V21.43c0-2.852.527-5.528 1.582-8.028 1.094-2.5 2.578-4.687 4.453-6.562a20.39 20.39 0 0 1 6.562-4.395c2.539-1.093 5.235-1.64 8.086-1.64h5.977c2.852 0 5.527.547 8.027 1.64a20.394 20.394 0 0 1 6.563 4.395 20.38 20.38 0 0 1 4.394 6.562c1.094 2.5 1.641 5.176 1.641 8.028v45.117Zm-7.559-45.117c0-1.875-.351-3.614-1.054-5.215a13.5 13.5 0 0 0-2.871-4.277 13.503 13.503 0 0 0-4.278-2.872c-1.601-.703-3.34-1.054-5.215-1.054h-5.273c-1.875 0-3.633.351-5.273 1.054a14.438 14.438 0 0 0-4.278 2.871 13.5 13.5 0 0 0-2.871 4.278c-.703 1.601-1.055 3.34-1.055 5.215v45.117c0 1.875.352 3.633 1.055 5.273a14.436 14.436 0 0 0 2.871 4.278 14.44 14.44 0 0 0 4.278 2.87c1.64.704 3.398 1.055 5.273 1.055h5.273c1.875 0 3.614-.351 5.215-1.054a13.505 13.505 0 0 0 4.278-2.871 14.436 14.436 0 0 0 2.871-4.278c.703-1.64 1.054-3.398 1.054-5.273V21.43ZM299.809 86 264.77 24.828l-.704-3.633V86h-7.558V1.977h3.926l35.039 61.23.761 3.574V1.977h7.559V86h-3.984Zm54.785-19.57h-26.602L322.484 86h-7.851l24.609-84.023h3.985L367.953 86h-7.793l-5.566-19.57Zm-24.551-7.207h22.559l-11.075-38.73-.234-3.106-.234 3.105-11.016 38.73ZM422.035 86l-35.039-61.172-.703-3.633V86h-7.559V1.977h3.926l35.039 61.23.762 3.574V1.977h7.559V86h-3.985Zm69.317-19.453c0 2.851-.547 5.527-1.641 8.027a20.398 20.398 0 0 1-4.395 6.563c-1.875 1.875-4.062 3.36-6.562 4.453-2.5 1.054-5.176 1.582-8.027 1.582h-5.977c-2.852 0-5.547-.528-8.086-1.582-2.5-1.094-4.687-2.578-6.562-4.453-1.875-1.875-3.36-4.063-4.454-6.563-1.054-2.5-1.582-5.176-1.582-8.027V21.43c0-2.852.528-5.528 1.582-8.028 1.094-2.5 2.579-4.687 4.454-6.562a20.39 20.39 0 0 1 6.562-4.395c2.539-1.093 5.234-1.64 8.086-1.64h5.977c2.851 0 5.527.547 8.027 1.64a20.39 20.39 0 0 1 6.562 4.395 20.398 20.398 0 0 1 4.395 6.562c1.094 2.5 1.641 5.176 1.641 8.028v3.398L483.793 26v-4.57c0-1.875-.352-3.614-1.055-5.215a13.5 13.5 0 0 0-2.871-4.277 13.51 13.51 0 0 0-4.277-2.872c-1.602-.703-3.34-1.054-5.215-1.054h-5.273c-1.875 0-3.633.351-5.274 1.054a14.446 14.446 0 0 0-4.277 2.871 13.5 13.5 0 0 0-2.871 4.278c-.703 1.601-1.055 3.34-1.055 5.215v45.117c0 1.875.352 3.633 1.055 5.273a14.436 14.436 0 0 0 2.871 4.278 14.448 14.448 0 0 0 4.277 2.87c1.641.704 3.399 1.055 5.274 1.055h5.273c1.875 0 3.613-.351 5.215-1.054a13.511 13.511 0 0 0 4.277-2.871 14.436 14.436 0 0 0 2.871-4.278c.703-1.64 1.055-3.398 1.055-5.273v-4.57l7.559 1.23v3.34ZM508.227 86V1.977h47.285v7.207h-39.727v31.23h32.168v7.207h-32.168v31.172h39.727V86h-47.285Z" shape-rendering="crispEdges"/>
    <path fill="#050505" fill-opacity=".5" d="m45.102 86-.844.536.294.464h.55v-1ZM22.309 50.14l.843-.536-.294-.463h-.55v1Zm-10.372 0v-1h-1v1h1Zm0 35.86v1h1v-1h-1ZM4.38 86h-1v1h1v-1Zm0-84.023v-1h-1v1h1Zm34.687 1.64-.4.916.012.006.388-.922Zm10.957 11.016-.923.383.003.01.004.008.916-.401Zm0 22.91-.918-.396-.003.007.921.389ZM39.066 48.559l.39.921.011-.005-.4-.916ZM31.04 50.14v-1h-1.82l.976 1.536.844-.536ZM53.832 86v1h1.82l-.976-1.536-.844.536ZM43.051 17.445l-.92.394.004.008.916-.402Zm-2.871-4.277-.719.696.006.005.006.006.707-.707Zm-4.278-2.93-.402.916.008.003.394-.919ZM11.937 9.184v-1h-1v1h1Zm0 33.75h-1v1h1v-1Zm23.965-1.055-.394-.92-.008.004.402.916Zm4.278-2.871.707.707.005-.006.006-.005-.718-.696Zm2.87-4.278.917.403.003-.009-.92-.394Zm2.896 50.734-22.793-35.86-1.688 1.073 22.793 35.86 1.688-1.073ZM22.309 49.14H11.937v2H22.31v-2Zm-11.372 1V86h2V50.14h-2Zm1 34.859H4.38v2h7.559v-2ZM5.38 86V1.977h-2V86h2Zm-1-83.023h26.66v-2H4.38v2Zm26.66 0c2.72 0 5.259.52 7.627 1.556l.801-1.832C36.835 1.55 34.022.977 31.04.977v2Zm7.639 1.562a19.391 19.391 0 0 1 6.244 4.18l1.414-1.414a21.392 21.392 0 0 0-6.88-4.61l-.778 1.844Zm6.244 4.18c1.779 1.779 3.172 3.875 4.178 6.297l1.847-.767c-1.103-2.655-2.64-4.973-4.611-6.944l-1.414 1.414Zm4.185 6.315c1.036 2.368 1.557 4.906 1.557 7.626h2c0-2.983-.573-5.796-1.724-8.428l-1.833.802Zm1.557 7.626v6.797h2V22.66h-2Zm0 6.797c0 2.72-.52 5.28-1.559 7.69l1.837.792c1.15-2.668 1.722-5.499 1.722-8.482h-2Zm-1.562 7.697a19.394 19.394 0 0 1-4.18 6.244l1.414 1.415a21.392 21.392 0 0 0 4.609-6.881l-1.843-.778Zm-4.18 6.244c-1.784 1.785-3.867 3.2-6.256 4.244l.801 1.833c2.611-1.142 4.903-2.697 6.869-4.662l-1.414-1.415Zm-6.244 4.24c-2.371 1-4.914 1.503-7.639 1.503v2c2.978 0 5.787-.552 8.416-1.661l-.777-1.843Zm-8.483 3.04 22.793 35.858 1.688-1.072-22.793-35.86-1.688 1.073ZM53.832 85h-8.73v2h8.73v-2Zm-8.727-62.34c0-2.003-.376-3.88-1.139-5.617l-1.83.804c.643 1.466.97 3.066.97 4.813h2Zm-1.135-5.609a14.502 14.502 0 0 0-3.083-4.59l-1.414 1.414a12.503 12.503 0 0 1 2.659 3.964l1.838-.788Zm-3.072-4.579a14.039 14.039 0 0 0-4.602-3.153l-.788 1.838a12.039 12.039 0 0 1 3.953 2.707l1.437-1.392Zm-4.594-3.15c-1.737-.762-3.613-1.138-5.617-1.138v2c1.747 0 3.347.326 4.813.97l.804-1.831Zm-5.617-1.138h-18.75v2h18.75v-2Zm-19.75 1v33.75h2V9.184h-2Zm1 34.75h18.75v-2h-18.75v2Zm18.75 0c2.004 0 3.88-.377 5.617-1.14l-.804-1.83c-1.466.643-3.066.97-4.813.97v2Zm5.61-1.136a14.504 14.504 0 0 0 4.59-3.083L39.473 38.3a12.505 12.505 0 0 1-3.965 2.659l.788 1.838Zm4.6-3.094a15.44 15.44 0 0 0 3.07-4.572l-1.832-.803a13.438 13.438 0 0 1-2.674 3.983l1.437 1.392Zm3.073-4.58c.76-1.771 1.136-3.664 1.136-5.667h-2c0 1.747-.327 3.37-.974 4.88l1.838.787Zm1.136-5.667V22.66h-2v6.797h2ZM68.305 86h-1v1h1v-1Zm0-84.023v-1h-1v1h1Zm47.285 0h1v-1h-1v1Zm0 7.207v1h1v-1h-1Zm-39.727 0v-1h-1v1h1Zm0 31.23h-1v1h1v-1Zm32.168 0h1v-1h-1v1Zm0 7.207v1h1v-1h-1Zm-32.168 0v-1h-1v1h1Zm0 31.172h-1v1h1v-1Zm39.727 0h1v-1h-1v1Zm0 7.207v1h1v-1h-1Zm-46.285 0V1.977h-2V86h2Zm-1-83.023h47.285v-2H68.305v2Zm46.285-1v7.207h2V1.977h-2Zm1 6.207H75.863v2h39.727v-2Zm-40.727 1v31.23h2V9.184h-2Zm1 32.23h32.168v-2H75.863v2Zm31.168-1v7.207h2v-7.207h-2Zm1 6.207H75.863v2h32.168v-2Zm-33.168 1v31.172h2V47.621h-2Zm1 32.172h39.727v-2H75.863v2Zm38.727-1V86h2v-7.207h-2Zm1 6.207H68.305v2h47.285v-2Zm58.769-10.426-.905-.424-.005.011.91.413Zm-4.629 6.563-.692-.722-.007.007.699.715Zm-6.738 4.453.384.923.007-.003-.391-.92Zm-22.265 0-.396.918.008.004.009.003.379-.925Zm-6.739-4.453-.7.714.008.007.692-.721Zm-4.629-6.563-.911.413.006.012.905-.425Zm-1.699-11.367-.161-.987-.839.137v.85h1Zm7.559-1.23h1V60.8l-1.161.189.161.987Zm1.113 9.843-.911.413.006.013.006.013.899-.439Zm3.106 4.278-.697.718.006.005.006.005.685-.728Zm4.453 2.87-.387.923.008.003.379-.925Zm20.449-2.87.685.728.005-.005.006-.005-.696-.718Zm3.047-4.278-.903-.43-.005.01.908.42Zm-.528-15 .861-.509-.861.51Zm-4.511-4.863-.59.808.012.008.578-.816Zm-6.387-3.457-.371.928.005.003.366-.931Zm-14.59-5.918-.435.9.006.003.429-.903Zm-6.328-4.219-.676.737.009.008.667-.745Zm-4.629-24.96-.916-.402-.005.013.921.388ZM141.43 2.444l.388.922.007-.003-.395-.919Zm21.504 0-.401.917.012.005.389-.922Zm10.957 10.957-.922.39.005.011.917-.4Zm1.64 10.196.161.987.839-.137v-.85h-1Zm-7.558 1.23h-1v1.176l1.16-.189-.16-.987Zm-1.055-8.613-.919.394.003.008.916-.402Zm-7.148-7.149-.402.916.008.004.394-.92Zm-15.176 0-.394-.919-.008.004.402.915Zm-4.278 2.871-.695-.718-.006.006-.006.005.707.707Zm-2.871 4.278.916.402.003-.008-.919-.394Zm5.157 18.34-.579.816.012.008.567-.824Zm6.328 3.398-.385.923.009.004.01.004.366-.93Zm7.324 2.93-.377.926.013.005.364-.931Zm7.266 3.281-.459.889.008.004.009.004.442-.897Zm6.386 4.395-.684.73.009.007.675-.737Zm5.211 17.988c0 2.71-.556 5.24-1.663 7.603l1.811.849c1.236-2.638 1.852-5.459 1.852-8.452h-2Zm-1.668 7.615a20.07 20.07 0 0 1-4.411 6.253l1.385 1.443a22.045 22.045 0 0 0 4.847-6.871l-1.821-.825Zm-4.418 6.26c-1.821 1.784-3.961 3.2-6.429 4.247l.781 1.841c2.688-1.14 5.04-2.693 7.047-4.659l-1.399-1.429Zm-6.422 4.244c-2.413 1.003-4.978 1.506-7.703 1.506v2c2.978 0 5.805-.552 8.47-1.659l-.767-1.847Zm-7.703 1.506h-6.035v2h6.035v-2Zm-6.035 0c-2.725 0-5.311-.503-7.766-1.508l-.757 1.851c2.701 1.105 5.545 1.657 8.523 1.657v-2Zm-7.749-1.5a21.494 21.494 0 0 1-6.441-4.257l-1.385 1.443a23.479 23.479 0 0 0 7.035 4.65l.791-1.837Zm-6.434-4.25c-1.826-1.788-3.3-3.877-4.423-6.272l-1.811.849a23.425 23.425 0 0 0 4.835 6.852l1.399-1.429Zm-4.418-6.26c-1.072-2.366-1.61-4.9-1.61-7.615h-2c0 2.988.595 5.805 1.789 8.44l1.821-.825Zm-1.61-7.615v-3.34h-2v3.34h2Zm-.839-2.353 7.558-1.23-.321-1.974-7.559 1.23.322 1.974Zm6.398-2.217v4.57h2v-4.57h-2Zm0 4.57c0 2.011.399 3.91 1.202 5.686l1.822-.825c-.681-1.506-1.024-3.122-1.024-4.861h-2Zm1.214 5.712a16.221 16.221 0 0 0 3.308 4.557l1.393-1.436a14.19 14.19 0 0 1-2.903-3.998l-1.798.877Zm3.32 4.567a15.783 15.783 0 0 0 4.751 3.065l.773-1.845a13.78 13.78 0 0 1-4.155-2.677l-1.369 1.457Zm4.759 3.068c1.84.753 3.766 1.13 5.769 1.13v-2c-1.746 0-3.414-.327-5.012-.98l-.757 1.85Zm5.769 1.13h5.274v-2h-5.274v2Zm5.274 0a14.67 14.67 0 0 0 5.718-1.133l-.772-1.845c-1.554.65-3.2.977-4.946.977v2Zm5.718-1.133a15.776 15.776 0 0 0 4.752-3.065l-1.37-1.457a13.776 13.776 0 0 1-4.154 2.677l.772 1.845Zm4.763-3.075a15.277 15.277 0 0 0 3.258-4.575l-1.815-.841a13.275 13.275 0 0 1-2.835 3.98l1.392 1.436Zm3.254-4.566c.847-1.779 1.269-3.684 1.269-5.703h-2c0 1.731-.36 3.341-1.075 4.843l1.806.86Zm1.269-5.703v-2.52h-2v2.52h2Zm0-2.52c0-3.017-.592-5.608-1.839-7.716l-1.721 1.019c1.018 1.72 1.56 3.933 1.56 6.697h2Zm-1.839-7.716c-1.207-2.04-2.809-3.763-4.794-5.17l-1.156 1.632c1.764 1.25 3.17 2.768 4.229 4.557l1.721-1.019Zm-4.783-5.162c-1.951-1.422-4.156-2.614-6.61-3.58l-.732 1.862c2.311.91 4.364 2.022 6.163 3.334l1.179-1.616Zm-6.605-3.578c-2.351-.94-4.779-1.88-7.286-2.82l-.702 1.873c2.494.935 4.909 1.87 7.246 2.804l.742-1.856Zm-7.286-2.82a92.721 92.721 0 0 1-7.246-3.072l-.858 1.806a94.475 94.475 0 0 0 7.402 3.139l.702-1.873Zm-7.24-3.07a26.105 26.105 0 0 1-6.096-4.063l-1.334 1.49a28.097 28.097 0 0 0 6.56 4.374l.87-1.8Zm-6.087-4.055c-1.771-1.623-3.198-3.602-4.279-5.95l-1.817.836c1.185 2.574 2.765 4.774 4.744 6.588l1.352-1.474Zm-4.279-5.95c-1.057-2.295-1.608-5.17-1.608-8.664h-2c0 3.693.581 6.872 1.791 9.5l1.817-.836Zm-1.608-8.664V21.43h-2v1.582h2Zm0-1.582c0-2.725.503-5.268 1.503-7.639l-1.842-.777c-1.11 2.629-1.661 5.438-1.661 8.416h2Zm1.498-7.627c1.045-2.389 2.46-4.472 4.244-6.256l-1.414-1.414c-1.966 1.965-3.52 4.258-4.662 6.869l1.832.801Zm4.244-6.256a19.406 19.406 0 0 1 6.244-4.18l-.777-1.843a21.4 21.4 0 0 0-6.881 4.609l1.414 1.414Zm6.251-4.183c2.41-1.038 4.971-1.56 7.691-1.56v-2c-2.984 0-5.814.574-8.482 1.723l.791 1.837Zm7.691-1.56h5.39v-2h-5.39v2Zm5.39 0c2.72 0 5.259.521 7.627 1.557l.801-1.832c-2.632-1.151-5.445-1.724-8.428-1.724v2Zm7.639 1.563a19.395 19.395 0 0 1 6.244 4.18l1.414-1.414a21.389 21.389 0 0 0-6.881-4.609l-.777 1.843Zm6.244 4.18a19.374 19.374 0 0 1 4.18 6.244l1.843-.777a21.389 21.389 0 0 0-4.609-6.881l-1.414 1.414Zm4.185 6.256c1.036 2.368 1.557 4.907 1.557 7.627h2c0-2.983-.573-5.796-1.724-8.428l-1.833.801Zm1.557 7.627v2.168h2V21.43h-2Zm.84 1.18-7.559 1.231.321 1.974 7.559-1.23-.321-1.974Zm-6.398 2.218V21.43h-2v3.398h2Zm0-3.398c0-2.004-.377-3.88-1.139-5.617l-1.832.804c.644 1.466.971 3.066.971 4.813h2Zm-1.136-5.61a14.496 14.496 0 0 0-3.083-4.59l-1.414 1.415a12.504 12.504 0 0 1 2.659 3.964l1.838-.788Zm-3.083-4.59a14.503 14.503 0 0 0-4.591-3.083l-.787 1.839a12.509 12.509 0 0 1 3.964 2.659l1.414-1.415Zm-4.582-3.08c-1.738-.762-3.614-1.138-5.617-1.138v2c1.746 0 3.347.326 4.813.97l.804-1.831Zm-5.617-1.138h-4.688v2h4.688v-2Zm-4.688 0c-2.003 0-3.896.376-5.667 1.135l.788 1.839c1.51-.648 3.133-.974 4.879-.974v-2Zm-5.675 1.139a15.427 15.427 0 0 0-4.571 3.068l1.391 1.437a13.444 13.444 0 0 1 3.984-2.674l-.804-1.831Zm-4.583 3.08a14.513 14.513 0 0 0-3.083 4.59l1.838.788c.656-1.529 1.542-2.847 2.66-3.964l-1.415-1.415Zm-3.079 4.582c-.763 1.737-1.139 3.613-1.139 5.617h2c0-1.747.326-3.347.97-4.813l-1.831-.804Zm-1.139 5.617v1.582h2V21.43h-2Zm0 1.582c0 2.834.596 5.293 1.848 7.322l1.702-1.05c-1.014-1.644-1.55-3.716-1.55-6.272h-2Zm1.848 7.322c1.208 1.957 2.807 3.636 4.785 5.037l1.156-1.632c-1.773-1.256-3.181-2.741-4.239-4.455l-1.702 1.05Zm4.796 5.045c1.938 1.332 4.11 2.497 6.51 3.497l.769-1.846c-2.287-.953-4.334-2.054-6.146-3.3l-1.133 1.649Zm6.529 3.505c2.379.936 4.817 1.911 7.314 2.925l.752-1.853a717.878 717.878 0 0 0-7.334-2.933l-.732 1.86Zm7.326 2.93a75.377 75.377 0 0 1 7.171 3.239l.918-1.777a77.354 77.354 0 0 0-7.361-3.325l-.728 1.863Zm7.188 3.247a25.135 25.135 0 0 1 6.144 4.227l1.368-1.459a27.142 27.142 0 0 0-6.629-4.562l-.883 1.794Zm6.153 4.235c1.767 1.62 3.195 3.617 4.276 6.003l1.822-.825c-1.184-2.613-2.765-4.836-4.747-6.653l-1.351 1.475Zm4.276 6.003c1.059 2.337 1.61 5.235 1.61 8.728h2c0-3.694-.581-6.89-1.788-9.553l-1.822.825Zm1.61 8.728v2.52h2v-2.52h-2Zm61.703 10.547-.916-.4-.005.011.921.39ZM225.863 85.59l.389.921.012-.005-.401-.916Zm-22.09 0-.4.916.008.004.009.003.383-.923Zm-11.015-11.016-.922.389.006.012.916-.4Zm0-61.172-.916-.4-.006.012.922.388Zm11.015-10.957.389.922.007-.003-.396-.919Zm22.09 0-.401.917.013.005.388-.922Zm10.957 10.957-.921.39.005.011.916-.4Zm-6.972 2.813-.92.394.004.008.916-.402Zm-7.149-7.149-.402.916.008.004.394-.92Zm-15.761 0-.394-.919-.008.004.402.915Zm-4.278 2.871-.696-.718-.005.006-.006.005.707.707Zm-2.871 4.278.916.402.003-.008-.919-.394Zm0 55.605-.919.394.003.008.916-.402Zm2.871 4.278-.718.695.011.012.011.01.696-.717Zm4.278 2.87-.403.916.009.004.394-.92Zm15.761 0-.394-.918-.008.003.402.916Zm4.278-2.87.707.707.005-.006.006-.006-.718-.695Zm2.871-4.278.915.402.004-.008-.919-.394Zm7.613-5.273c0 2.72-.521 5.258-1.557 7.626l1.832.802c1.152-2.632 1.725-5.445 1.725-8.428h-2Zm-1.562 7.639a19.404 19.404 0 0 1-4.18 6.244l1.414 1.414a21.404 21.404 0 0 0 4.609-6.881l-1.843-.777Zm-4.18 6.244c-1.785 1.784-3.867 3.198-6.257 4.244l.802 1.832c2.611-1.142 4.903-2.696 6.869-4.662l-1.414-1.414Zm-6.244 4.238c-2.371 1-4.914 1.504-7.639 1.504v2c2.978 0 5.787-.552 8.416-1.66l-.777-1.844Zm-7.639 1.504h-5.977v2h5.977v-2Zm-5.977 0c-2.725 0-5.289-.503-7.702-1.506l-.767 1.847c2.665 1.107 5.491 1.659 8.469 1.659v-2Zm-7.685-1.498c-2.389-1.046-4.472-2.46-6.256-4.244l-1.414 1.414c1.966 1.966 4.258 3.52 6.869 4.662l.801-1.832Zm-6.256-4.244c-1.784-1.785-3.199-3.867-4.244-6.257l-1.832.802c1.142 2.61 2.696 4.903 4.662 6.869l1.414-1.414Zm-4.239-6.245c-1-2.37-1.503-4.913-1.503-7.638h-2c0 2.978.551 5.787 1.66 8.416l1.843-.777Zm-1.503-7.638V21.43h-2v45.117h2Zm0-45.117c0-2.725.503-5.268 1.503-7.639l-1.843-.777c-1.109 2.629-1.66 5.438-1.66 8.416h2Zm1.498-7.627c1.045-2.389 2.46-4.472 4.244-6.256l-1.414-1.414c-1.966 1.965-3.52 4.258-4.662 6.869l1.832.801Zm4.244-6.256a19.395 19.395 0 0 1 6.244-4.18l-.777-1.843a21.389 21.389 0 0 0-6.881 4.609l1.414 1.414Zm6.251-4.183c2.41-1.038 4.97-1.56 7.69-1.56v-2c-2.983 0-5.813.574-8.481 1.723l.791 1.837Zm7.69-1.56h5.977v-2h-5.977v2Zm5.977 0c2.72 0 5.259.521 7.626 1.557l.802-1.832c-2.632-1.151-5.445-1.724-8.428-1.724v2Zm7.639 1.563a19.406 19.406 0 0 1 6.244 4.18l1.414-1.414a21.4 21.4 0 0 0-6.881-4.609l-.777 1.843Zm6.244 4.18a19.406 19.406 0 0 1 4.18 6.244l1.843-.777a21.405 21.405 0 0 0-4.609-6.881l-1.414 1.414Zm4.185 6.256c1.036 2.368 1.557 4.907 1.557 7.627h2c0-2.983-.573-5.796-1.725-8.428l-1.832.801Zm1.557 7.627v45.117h2V21.43h-2Zm-5.559 0c0-2.004-.376-3.88-1.139-5.617l-1.831.804c.644 1.466.97 3.066.97 4.813h2Zm-1.135-5.61a14.513 14.513 0 0 0-3.083-4.59l-1.415 1.415c1.118 1.117 2.004 2.435 2.66 3.964l1.838-.788Zm-3.083-4.59a14.503 14.503 0 0 0-4.591-3.083l-.788 1.839a12.497 12.497 0 0 1 3.964 2.659l1.415-1.415Zm-4.583-3.08c-1.737-.762-3.613-1.138-5.617-1.138v2c1.747 0 3.347.326 4.813.97l.804-1.831Zm-5.617-1.138h-5.273v2h5.273v-2Zm-5.273 0c-2.004 0-3.896.376-5.667 1.135l.787 1.839c1.51-.648 3.133-.974 4.88-.974v-2Zm-5.675 1.139a15.444 15.444 0 0 0-4.572 3.068l1.392 1.437a13.44 13.44 0 0 1 3.983-2.674l-.803-1.831Zm-4.583 3.08a14.496 14.496 0 0 0-3.083 4.59l1.838.788a12.504 12.504 0 0 1 2.659-3.964l-1.414-1.415Zm-3.08 4.582c-.762 1.737-1.139 3.613-1.139 5.617h2c0-1.747.327-3.347.971-4.813l-1.832-.804Zm-1.139 5.617v45.117h2V21.43h-2Zm0 45.117c0 2.003.377 3.896 1.136 5.667l1.838-.788c-.647-1.51-.974-3.133-.974-4.88h-2Zm1.139 5.675a15.45 15.45 0 0 0 3.069 4.572l1.436-1.392a13.442 13.442 0 0 1-2.673-3.984l-1.832.804Zm3.091 4.594a15.445 15.445 0 0 0 4.572 3.068l.803-1.83a13.439 13.439 0 0 1-3.983-2.675l-1.392 1.437Zm4.58 3.072c1.771.759 3.663 1.135 5.667 1.135v-2c-1.747 0-3.37-.326-4.88-.973l-.787 1.838Zm5.667 1.135h5.273v-2h-5.273v2Zm5.273 0c2.004 0 3.88-.376 5.617-1.139l-.804-1.83c-1.466.643-3.066.97-4.813.97v2Zm5.609-1.135a14.505 14.505 0 0 0 4.591-3.083l-1.415-1.415a12.498 12.498 0 0 1-3.964 2.66l.788 1.838Zm4.602-3.095a15.428 15.428 0 0 0 3.068-4.57l-1.831-.805a13.445 13.445 0 0 1-2.674 3.984l1.437 1.391Zm3.072-4.579c.759-1.771 1.135-3.664 1.135-5.667h-2c0 1.746-.326 3.37-.973 4.88l1.838.787Zm1.135-5.667V21.43h-2v45.117h2ZM299.809 86l-.868.497.288.503h.58v-1ZM264.77 24.828l-.982.19.031.163.083.144.868-.497Zm-.704-3.633.982-.19-1.982.19h1Zm0 64.805v1h1v-1h-1Zm-7.558 0h-1v1h1v-1Zm0-84.023v-1h-1v1h1Zm3.926 0 .868-.497-.288-.503h-.58v1Zm35.039 61.23.978-.208-.033-.153-.077-.136-.868.497Zm.761 3.574-.978.209 1.978-.209h-1Zm0-64.804v-1h-1v1h1Zm7.559 0h1v-1h-1v1Zm0 84.023v1h1v-1h-1Zm-3.117-.497-35.039-61.172-1.735.994 35.039 61.172 1.735-.994Zm-34.925-60.865-.703-3.633-1.963.38.703 3.633 1.963-.38Zm-2.685-3.443V86h2V21.195h-2Zm1 63.805h-7.558v2h7.558v-2Zm-6.558 1V1.977h-2V86h2Zm-1-83.023h3.926v-2h-3.926v2Zm3.058-.504 35.039 61.23 1.736-.993-35.039-61.23-1.736.993Zm34.929 60.943.761 3.574 1.956-.417-.761-3.574-1.956.416Zm2.739 3.365V1.977h-2V66.78h2Zm-1-63.804h7.559v-2h-7.559v2Zm6.559-1V86h2V1.977h-2Zm1 83.023h-3.984v2h3.984v-2Zm50.801-18.57.962-.274-.207-.726h-.755v1Zm-26.602 0v-1h-.757l-.205.729.962.27ZM322.484 86v1h.758l.205-.73-.963-.27Zm-7.851 0-.96-.281-.375 1.281h1.335v-1Zm24.609-84.023v-1h-.749l-.21.718.959.282Zm3.985 0 .959-.283-.211-.717h-.748v1ZM367.953 86v1h1.337l-.378-1.282-.959.282Zm-7.793 0-.962.274.207.726h.755v-1Zm-30.117-26.777-.962-.274-.362 1.274h1.324v-1Zm22.559 0v1h1.326l-.365-1.275-.961.275Zm-11.075-38.73-.997.074.008.102.028.098.961-.275Zm-.234-3.106.997-.076h-1.994l.997.076Zm-.234 3.105.961.274.028-.098.008-.1-.997-.076Zm13.535 44.938h-26.602v2h26.602v-2Zm-27.564.729-5.508 19.57 1.925.542 5.508-19.57-1.925-.542ZM322.484 85h-7.851v2h7.851v-2Zm-6.892 1.281 24.61-84.023-1.919-.563-24.61 84.024 1.919.562Zm23.65-83.304h3.985v-2h-3.985v2Zm3.025-.718 24.727 84.023 1.918-.564-24.726-84.024-1.919.565ZM367.953 85h-7.793v2h7.793v-2Zm-6.831.726-5.566-19.57-1.924.547 5.566 19.57 1.924-.547Zm-31.079-25.503h22.559v-2h-22.559v2Zm23.52-1.275-11.074-38.73-1.923.55 11.074 38.73 1.923-.55Zm-11.038-38.531-.235-3.106-1.994.151.234 3.105 1.995-.15Zm-2.229-3.106-.235 3.106 1.995.15.234-3.105-1.994-.15Zm-.199 2.908-11.016 38.73 1.924.547 11.015-38.73-1.923-.547ZM422.035 86l-.868.497.289.503h.579v-1Zm-35.039-61.172-.982.19.032.163.082.144.868-.497Zm-.703-3.633.982-.19-1.982.19h1Zm0 64.805v1h1v-1h-1Zm-7.559 0h-1v1h1v-1Zm0-84.023v-1h-1v1h1Zm3.926 0 .868-.497-.288-.503h-.58v1Zm35.039 61.23.978-.208-.032-.153-.078-.136-.868.497Zm.762 3.574-.978.209 1.978-.209h-1Zm0-64.804v-1h-1v1h1Zm7.559 0h1v-1h-1v1Zm0 84.023v1h1v-1h-1Zm-3.117-.497-35.039-61.172-1.736.994 35.039 61.172 1.736-.994Zm-34.925-60.865-.703-3.633-1.964.38.703 3.633 1.964-.38Zm-2.685-3.443V86h2V21.195h-2Zm1 63.805h-7.559v2h7.559v-2Zm-6.559 1V1.977h-2V86h2Zm-1-83.023h3.926v-2h-3.926v2Zm3.058-.504 35.039 61.23 1.736-.993-35.039-61.23-1.736.993Zm34.929 60.943.762 3.574 1.956-.417-.762-3.574-1.956.416Zm2.74 3.365V1.977h-2V66.78h2Zm-1-63.804h7.559v-2h-7.559v2Zm6.559-1V86h2V1.977h-2Zm1 83.023h-3.985v2h3.985v-2Zm63.691-10.426-.916-.4-.005.011.921.39ZM478.754 85.59l.389.921.012-.005-.401-.916Zm-22.09 0-.401.916.009.004.008.003.384-.923Zm-11.016-11.016-.921.389.005.012.916-.4Zm0-61.172-.916-.4-.005.012.921.388Zm11.016-10.957.389.922.007-.003-.396-.919Zm22.09 0-.401.917.012.005.389-.922Zm10.957 10.957-.922.39.006.011.916-.4Zm1.641 11.426.153.988.847-.131v-.857h-1ZM483.793 26h-1v1.167l1.153-.179-.153-.988Zm-1.055-9.785-.919.394.004.008.915-.402Zm-7.148-7.149-.402.916.008.004.394-.92Zm-15.762 0-.394-.919-.008.004.402.915Zm-4.277 2.871-.696-.718-.006.006-.005.005.707.707Zm-2.871 4.278.915.402.004-.008-.919-.394Zm0 55.605-.919.394.003.008.916-.402Zm2.871 4.278-.718.695.011.012.011.01.696-.717Zm4.277 2.87-.402.916.008.004.394-.92Zm15.762 0-.394-.918-.008.003.402.916Zm4.277-2.87.707.707.006-.006.005-.006-.718-.695Zm2.871-4.278.916.402.003-.008-.919-.394Zm1.055-9.843.161-.987-1.161-.19v1.177h1Zm7.559 1.23h1v-.85l-.84-.137-.16.987Zm-1 3.34c0 2.72-.521 5.258-1.557 7.626l1.832.802c1.152-2.632 1.725-5.445 1.725-8.428h-2Zm-1.562 7.639a19.39 19.39 0 0 1-4.181 6.244l1.415 1.414a21.385 21.385 0 0 0 4.608-6.881l-1.842-.777Zm-4.181 6.244c-1.784 1.784-3.867 3.198-6.256 4.244l.802 1.832c2.611-1.142 4.903-2.696 6.869-4.662l-1.415-1.414Zm-6.244 4.238c-2.371 1-4.913 1.504-7.638 1.504v2c2.978 0 5.786-.552 8.416-1.66l-.778-1.844Zm-7.638 1.504h-5.977v2h5.977v-2Zm-5.977 0c-2.725 0-5.289-.503-7.702-1.506l-.768 1.847c2.666 1.107 5.492 1.659 8.47 1.659v-2Zm-7.685-1.498c-2.389-1.046-4.472-2.46-6.256-4.244l-1.415 1.414c1.966 1.966 4.258 3.52 6.869 4.662l.802-1.832Zm-6.256-4.244c-1.785-1.785-3.199-3.867-4.244-6.257l-1.833.802c1.143 2.61 2.697 4.903 4.662 6.869l1.415-1.414Zm-4.239-6.245c-1-2.37-1.504-4.913-1.504-7.638h-2c0 2.978.552 5.787 1.661 8.416l1.843-.777Zm-1.504-7.638V21.43h-2v45.117h2Zm0-45.117c0-2.725.504-5.268 1.504-7.639l-1.843-.777c-1.109 2.629-1.661 5.438-1.661 8.416h2Zm1.499-7.627c1.045-2.389 2.459-4.472 4.244-6.256l-1.415-1.414c-1.965 1.965-3.519 4.258-4.662 6.869l1.833.801Zm4.244-6.256a19.384 19.384 0 0 1 6.244-4.18l-.778-1.843a21.4 21.4 0 0 0-6.881 4.609l1.415 1.414Zm6.251-4.183c2.41-1.038 4.97-1.56 7.69-1.56v-2c-2.983 0-5.814.574-8.482 1.723l.792 1.837Zm7.69-1.56h5.977v-2h-5.977v2Zm5.977 0c2.72 0 5.258.521 7.626 1.557l.802-1.832c-2.632-1.151-5.445-1.724-8.428-1.724v2Zm7.638 1.563a19.384 19.384 0 0 1 6.244 4.18l1.415-1.414a21.4 21.4 0 0 0-6.881-4.609l-.778 1.843Zm6.244 4.18a19.392 19.392 0 0 1 4.181 6.244l1.842-.777a21.386 21.386 0 0 0-4.608-6.881l-1.415 1.414Zm4.186 6.256c1.036 2.368 1.557 4.907 1.557 7.627h2c0-2.983-.573-5.796-1.725-8.428l-1.832.801Zm1.557 7.627v3.398h2V21.43h-2Zm.846 2.41-7.558 1.172.306 1.976 7.559-1.172-.307-1.976ZM484.793 26v-4.57h-2V26h2Zm0-4.57c0-2.004-.376-3.88-1.139-5.617l-1.831.804c.643 1.466.97 3.066.97 4.813h2Zm-1.136-5.61a14.496 14.496 0 0 0-3.083-4.59l-1.414 1.415a12.504 12.504 0 0 1 2.659 3.964l1.838-.788Zm-3.083-4.59a14.499 14.499 0 0 0-4.59-3.083l-.788 1.839a12.497 12.497 0 0 1 3.964 2.659l1.414-1.415Zm-4.582-3.08c-1.737-.762-3.614-1.138-5.617-1.138v2c1.747 0 3.347.326 4.813.97l.804-1.831Zm-5.617-1.138h-5.273v2h5.273v-2Zm-5.273 0c-2.004 0-3.896.376-5.668 1.135l.788 1.839c1.51-.648 3.133-.974 4.88-.974v-2Zm-5.676 1.139a15.44 15.44 0 0 0-4.571 3.068l1.392 1.437a13.44 13.44 0 0 1 3.983-2.674l-.804-1.831Zm-4.582 3.08a14.496 14.496 0 0 0-3.083 4.59l1.838.788a12.504 12.504 0 0 1 2.659-3.964l-1.414-1.415Zm-3.08 4.582c-.763 1.737-1.139 3.613-1.139 5.617h2c0-1.747.327-3.347.97-4.813l-1.831-.804Zm-1.139 5.617v45.117h2V21.43h-2Zm0 45.117c0 2.003.376 3.896 1.136 5.667l1.838-.788c-.647-1.51-.974-3.133-.974-4.88h-2Zm1.139 5.675a15.431 15.431 0 0 0 3.069 4.572l1.436-1.392a13.445 13.445 0 0 1-2.674-3.984l-1.831.804Zm3.091 4.594a15.44 15.44 0 0 0 4.571 3.068l.804-1.83a13.439 13.439 0 0 1-3.983-2.675l-1.392 1.437Zm4.579 3.072c1.772.759 3.664 1.135 5.668 1.135v-2c-1.747 0-3.37-.326-4.88-.973l-.788 1.838Zm5.668 1.135h5.273v-2h-5.273v2Zm5.273 0c2.003 0 3.88-.376 5.617-1.139l-.804-1.83c-1.466.643-3.066.97-4.813.97v2Zm5.609-1.135a14.5 14.5 0 0 0 4.59-3.083l-1.414-1.415a12.498 12.498 0 0 1-3.964 2.66l.788 1.838Zm4.601-3.095a15.431 15.431 0 0 0 3.069-4.57l-1.831-.805a13.445 13.445 0 0 1-2.674 3.984l1.436 1.391Zm3.072-4.579c.76-1.771 1.136-3.664 1.136-5.667h-2c0 1.746-.327 3.37-.974 4.88l1.838.787Zm1.136-5.667v-4.57h-2v4.57h2Zm-1.161-3.583 7.559 1.23.321-1.974-7.558-1.23-.322 1.974Zm6.72.243v3.34h2v-3.34h-2ZM508.227 86h-1v1h1v-1Zm0-84.023v-1h-1v1h1Zm47.285 0h1v-1h-1v1Zm0 7.207v1h1v-1h-1Zm-39.727 0v-1h-1v1h1Zm0 31.23h-1v1h1v-1Zm32.168 0h1v-1h-1v1Zm0 7.207v1h1v-1h-1Zm-32.168 0v-1h-1v1h1Zm0 31.172h-1v1h1v-1Zm39.727 0h1v-1h-1v1Zm0 7.207v1h1v-1h-1Zm-46.285 0V1.977h-2V86h2Zm-1-83.023h47.285v-2h-47.285v2Zm46.285-1v7.207h2V1.977h-2Zm1 6.207h-39.727v2h39.727v-2Zm-40.727 1v31.23h2V9.184h-2Zm1 32.23h32.168v-2h-32.168v2Zm31.168-1v7.207h2v-7.207h-2Zm1 6.207h-32.168v2h32.168v-2Zm-33.168 1v31.172h2V47.621h-2Zm1 32.172h39.727v-2h-39.727v2Zm38.727-1V86h2v-7.207h-2Zm1 6.207h-47.285v2h47.285v-2Z" mask="url(#b)"/>
  </g>
  <defs>
    <filter id="a" width="559.133" height="94.367" x=".379" y=".805" color-interpolation-filters="sRGB" filterUnits="userSpaceOnUse">
      <feFlood flood-opacity="0" result="BackgroundImageFix"/>
      <feColorMatrix in="SourceAlpha" result="hardAlpha" values="0 0 0 0 0 0 0 0 0 0 0 0 0 0 0 0 0 0 127 0"/>
      <feOffset dy="4"/>
      <feGaussianBlur stdDeviation="2"/>
      <feComposite in2="hardAlpha" operator="out"/>
      <feColorMatrix values="0 0 0 0 0 0 0 0 0 0 0 0 0 0 0 0 0 0 0.25 0"/>
      <feBlend in2="BackgroundImageFix" result="effect1_dropShadow_2_2"/>
      <feBlend in="SourceGraphic" in2="effect1_dropShadow_2_2" result="shape"/>
    </filter>
  </defs>
</svg>
